%
M48
M72
T01C0.0120
T02C0.0150
T03C0.0315
T04C0.1260
%
T01
X21244Y12512
X22935Y14076
X22644Y15162
X22294Y15162
X25494Y16312
X25944Y16062
X26244Y16312
X28094Y17262
X28544Y17012
X27694Y17762
X26794Y17512
X26244Y18062
X25244Y18062
X25494Y20212
X25844Y20212
X27444Y20212
X27794Y20212
X28144Y20212
X28844Y19362
X31194Y17562
X31194Y17112
X30494Y17162
X30244Y17412
X30444Y16762
X32044Y17012
X37108Y17029
X37502Y17423
X37895Y17029
X37502Y16635
X37895Y16242
X37502Y15848
X37895Y15454
X37502Y15061
X37895Y14667
X37108Y14667
X37108Y15454
X37108Y16242
X37108Y17817
X37895Y17817
X26344Y11962
X25794Y11962
X37108Y7580
X37502Y7187
X37895Y6793
X37502Y6399
X37895Y6006
X37108Y6006
X37108Y6793
X37895Y7580
T02
X36594Y7912
X35730Y7974
X35336Y7580
X34943Y7974
X34943Y8565
X34943Y9155
X34943Y9746
X34943Y10336
X35533Y10336
X36124Y10336
X35144Y11212
X34744Y11312
X34344Y11312
X34344Y12312
X34744Y12312
X35144Y12412
X35544Y12312
X35944Y12312
X35944Y12712
X35544Y12712
X35844Y13712
X30894Y18312
X25794Y13262
X26084Y12312
X25194Y12012
X25194Y11462
X23794Y12012
X23194Y11612
X22144Y10512
X22194Y9962
X23194Y9912
X23194Y10312
X21344Y9112
X21744Y9012
X19785Y10336
X19391Y9943
X18998Y10336
X18594Y10212
X18294Y10512
X18604Y10730
X18998Y11124
X19391Y10730
X19785Y11124
X20179Y10730
X20494Y11362
X20794Y11112
X20994Y11662
X21360Y11911
X20572Y11911
X20179Y12305
X19785Y11911
X19391Y12305
X18998Y11911
X18604Y12305
X18210Y11911
X17817Y12305
X17423Y11911
X17817Y11517
X18210Y11124
X17994Y10812
X18604Y11517
X19391Y11517
X18998Y12698
X19391Y13092
X18998Y13486
X18494Y13462
X18604Y13092
X18210Y12698
X17620Y12698
X16242Y13092
X15644Y13212
X15061Y13289
X15244Y13762
X15544Y14312
X16144Y14562
X16294Y14162
X14744Y14662
X13894Y14162
X13094Y14662
X12744Y13912
X13494Y13262
X13894Y13262
X13880Y12305
X14273Y12305
X14273Y11911
X13880Y11911
X13486Y11911
X13486Y12305
X13486Y11517
X13880Y11517
X14273Y11517
X14864Y10927
X15257Y10533
X15651Y10927
X15257Y11320
X14470Y10533
X14076Y10139
X14864Y10139
X13094Y10862
X11320Y10927
X10927Y10927
X10927Y11320
X10927Y11714
X10927Y12108
X10927Y12502
X10927Y12895
X11320Y12895
X11320Y14470
X10927Y14470
X10927Y14864
X14694Y15612
X15244Y16912
X16944Y16262
X16944Y15862
X18194Y15662
X18604Y15848
X18998Y15848
X18998Y15454
X18604Y15454
X19994Y15612
X20394Y15612
X20794Y15612
X21194Y15612
X21594Y15612
X19394Y13962
X19785Y13486
X20247Y13509
X20179Y13092
X20572Y12698
X19785Y12698
X15651Y12502
X19094Y8462
X17944Y7912
X17944Y7462
X18344Y7062
X18794Y7062
X18794Y7462
X18794Y6662
X18344Y6662
X17644Y6462
X17344Y6162
X16894Y6162
X16594Y6412
X16844Y7212
X17194Y7012
X17644Y6912
X17194Y7612
X12108Y7187
X11714Y7187
X11714Y7580
X11320Y7580
X11320Y7974
X10139Y7974
X10139Y8368
X8044Y7912
X6194Y6262
X3794Y7762
X3694Y9062
X3694Y10062
X5794Y9562
X6841Y10259
X6491Y10609
X3744Y13312
X1294Y13462
X1294Y14612
X1294Y15812
X1294Y16962
X3644Y17412
X3944Y17062
X4944Y17812
X4694Y18162
X6794Y18162
X3744Y15062
X1294Y12262
X1294Y10412
X1294Y9212
X1294Y8012
X1294Y6862
X9394Y6012
X21394Y4062
X27294Y9608
X21744Y18162
X17044Y18162
X12294Y18162
T03
X11517Y18998
X10730Y18998
X9155Y18998
X8368Y18998
X7580Y18998
X6006Y18998
X5218Y18998
X4431Y18998
X13092Y18998
X13880Y18998
X15454Y18998
X16242Y18998
X17817Y18998
X18604Y18998
X20179Y18998
X20966Y18998
X22541Y18998
X23328Y18998
X31202Y18998
X31990Y18998
X32777Y18998
X33565Y18998
X35927Y17423
X35927Y16635
X35927Y15848
X35927Y15061
X35927Y7187
X35927Y6399
X33565Y4824
X32777Y4824
X31990Y4824
X30021Y4824
X29234Y4824
X27659Y4824
X26872Y4824
X25297Y4824
X24509Y4824
X22935Y4824
X22147Y4824
X20179Y4824
X19391Y4824
X18604Y4824
X17029Y4824
X16242Y4824
X15454Y4824
X13486Y4824
X12698Y4824
X11911Y4824
X11124Y4824
X9155Y4824
X8368Y4824
X7580Y4824
X6006Y4824
X5218Y4824
X4431Y4824
T04
X2069Y4037
X2069Y19785
X36714Y19785
X36714Y4037
M30
