G75*
%MOIN*%
%OFA0B0*%
%FSLAX24Y24*%
%IPPOS*%
%LPD*%
%AMOC8*
5,1,8,0,0,1.08239X$1,22.5*
%
%ADD10R,0.0434X0.0473*%
%ADD11R,0.0512X0.0257*%
%ADD12R,0.0473X0.0434*%
%ADD13C,0.0595*%
%ADD14R,0.0316X0.0749*%
%ADD15R,0.0182X0.0371*%
%ADD16R,0.0158X0.0371*%
%ADD17R,0.0296X0.0237*%
%ADD18R,0.1662X0.0827*%
%ADD19C,0.0340*%
%ADD20R,0.1540X0.0840*%
%ADD21C,0.2540*%
%ADD22R,0.0512X0.0355*%
%ADD23R,0.0493X0.0906*%
%ADD24R,0.0631X0.0493*%
%ADD25R,0.0414X0.1024*%
%ADD26R,0.0355X0.0528*%
%ADD27R,0.0497X0.0512*%
%ADD28R,0.0497X0.0532*%
D10*
X004824Y006065D03*
X004824Y006734D03*
X005612Y006734D03*
X005612Y006065D03*
X007974Y006065D03*
X007974Y006734D03*
X008761Y006734D03*
X008761Y006065D03*
X018013Y008820D03*
X018998Y008820D03*
X019785Y008820D03*
X020572Y008820D03*
X020572Y009490D03*
X019785Y009490D03*
X018998Y009490D03*
X018013Y009490D03*
X025297Y009608D03*
X026084Y009608D03*
X026872Y009608D03*
X026872Y010277D03*
X026084Y010277D03*
X025297Y010277D03*
X019785Y014332D03*
X018998Y014332D03*
X018210Y014332D03*
X018210Y015002D03*
X018998Y015002D03*
X019785Y015002D03*
X020572Y017088D03*
X020572Y017757D03*
X018210Y017757D03*
X018210Y017088D03*
X015848Y017088D03*
X015848Y017757D03*
X013486Y017757D03*
X013486Y017088D03*
X011124Y017088D03*
X011124Y017757D03*
X007974Y017757D03*
X007974Y017088D03*
X005612Y017088D03*
X005612Y017757D03*
X004431Y017757D03*
X004431Y017088D03*
X022935Y017088D03*
X022935Y017757D03*
X034746Y015395D03*
X034746Y014726D03*
X034746Y013820D03*
X034746Y013151D03*
D11*
X036202Y013506D03*
X037226Y013506D03*
X037226Y013880D03*
X037226Y014254D03*
X036202Y014254D03*
D12*
X022482Y013880D03*
X021813Y013880D03*
X021813Y013092D03*
X022482Y013092D03*
X022482Y012305D03*
X021813Y012305D03*
X021813Y011517D03*
X022482Y011517D03*
X016970Y012305D03*
X016301Y012305D03*
D13*
X016242Y018998D03*
X015454Y018998D03*
X013880Y018998D03*
X013092Y018998D03*
X011517Y018998D03*
X010730Y018998D03*
X009155Y018998D03*
X008368Y018998D03*
X007580Y018998D03*
X006006Y018998D03*
X005218Y018998D03*
X004431Y018998D03*
X017817Y018998D03*
X018604Y018998D03*
X020179Y018998D03*
X020966Y018998D03*
X022541Y018998D03*
X023328Y018998D03*
X031202Y018998D03*
X031990Y018998D03*
X032777Y018998D03*
X033565Y018998D03*
X035927Y017423D03*
X035927Y016635D03*
X035927Y015848D03*
X035927Y015061D03*
X035927Y007187D03*
X035927Y006399D03*
X033565Y004824D03*
X032777Y004824D03*
X031990Y004824D03*
X030021Y004824D03*
X029234Y004824D03*
X027659Y004824D03*
X026872Y004824D03*
X025297Y004824D03*
X024509Y004824D03*
X022935Y004824D03*
X022147Y004824D03*
X020179Y004824D03*
X019391Y004824D03*
X018604Y004824D03*
X017029Y004824D03*
X016242Y004824D03*
X015454Y004824D03*
X013486Y004824D03*
X012698Y004824D03*
X011911Y004824D03*
X011124Y004824D03*
X009155Y004824D03*
X008368Y004824D03*
X007580Y004824D03*
X006006Y004824D03*
X005218Y004824D03*
X004431Y004824D03*
D14*
X025651Y011222D03*
X026084Y011222D03*
X026517Y011222D03*
X026517Y012600D03*
X026084Y012600D03*
X025651Y012600D03*
D15*
X021962Y017135D03*
X021545Y017135D03*
X021545Y017710D03*
X021962Y017710D03*
X017238Y017710D03*
X016820Y017710D03*
X016820Y017135D03*
X017238Y017135D03*
X012513Y017135D03*
X012096Y017135D03*
X012096Y017710D03*
X012513Y017710D03*
X007002Y017710D03*
X006584Y017710D03*
X006584Y017135D03*
X007002Y017135D03*
D16*
X006793Y017135D03*
X006793Y017710D03*
X012305Y017710D03*
X012305Y017135D03*
X017029Y017135D03*
X017029Y017710D03*
X021754Y017710D03*
X021754Y017135D03*
D17*
X035228Y009905D03*
X035228Y009405D03*
X035228Y008905D03*
X035228Y008405D03*
X037413Y008405D03*
X037413Y008905D03*
X037413Y009405D03*
X037413Y009905D03*
D18*
X036139Y009667D03*
X036139Y008643D03*
D19*
X017029Y013289D03*
D20*
X004824Y014273D03*
X004824Y009549D03*
D21*
X002069Y004037D03*
X002069Y019785D03*
X036714Y019785D03*
X036714Y004037D03*
D22*
X033958Y013131D03*
X033958Y013840D03*
D23*
X030236Y015017D03*
X024610Y019537D03*
D24*
X025478Y014704D03*
X028541Y014704D03*
D25*
X030276Y019478D03*
D26*
X028565Y019726D03*
X028132Y019726D03*
X027699Y019726D03*
X027266Y019726D03*
X026833Y019726D03*
X026400Y019726D03*
X025967Y019726D03*
X025533Y019726D03*
D27*
X024770Y015147D03*
D28*
X024770Y018691D03*
M02*
