G75*
%MOIN*%
%OFA0B0*%
%FSLAX24Y24*%
%IPPOS*%
%LPD*%
%AMOC8*
5,1,8,0,0,1.08239X$1,22.5*
%
%ADD10C,0.0020*%
D10*
X002069Y002462D02*
X036714Y002462D01*
X036791Y002464D01*
X036868Y002470D01*
X036945Y002479D01*
X037021Y002492D01*
X037097Y002509D01*
X037171Y002530D01*
X037245Y002554D01*
X037317Y002582D01*
X037387Y002613D01*
X037456Y002648D01*
X037524Y002686D01*
X037589Y002727D01*
X037652Y002772D01*
X037713Y002820D01*
X037772Y002870D01*
X037828Y002923D01*
X037881Y002979D01*
X037931Y003038D01*
X037979Y003099D01*
X038024Y003162D01*
X038065Y003227D01*
X038103Y003295D01*
X038138Y003364D01*
X038169Y003434D01*
X038197Y003506D01*
X038221Y003580D01*
X038242Y003654D01*
X038259Y003730D01*
X038272Y003806D01*
X038281Y003883D01*
X038287Y003960D01*
X038289Y004037D01*
X038289Y019785D01*
X038287Y019862D01*
X038281Y019939D01*
X038272Y020016D01*
X038259Y020092D01*
X038242Y020168D01*
X038221Y020242D01*
X038197Y020316D01*
X038169Y020388D01*
X038138Y020458D01*
X038103Y020527D01*
X038065Y020595D01*
X038024Y020660D01*
X037979Y020723D01*
X037931Y020784D01*
X037881Y020843D01*
X037828Y020899D01*
X037772Y020952D01*
X037713Y021002D01*
X037652Y021050D01*
X037589Y021095D01*
X037524Y021136D01*
X037456Y021174D01*
X037387Y021209D01*
X037317Y021240D01*
X037245Y021268D01*
X037171Y021292D01*
X037097Y021313D01*
X037021Y021330D01*
X036945Y021343D01*
X036868Y021352D01*
X036791Y021358D01*
X036714Y021360D01*
X002069Y021360D01*
X001992Y021358D01*
X001915Y021352D01*
X001838Y021343D01*
X001762Y021330D01*
X001686Y021313D01*
X001612Y021292D01*
X001538Y021268D01*
X001466Y021240D01*
X001396Y021209D01*
X001327Y021174D01*
X001259Y021136D01*
X001194Y021095D01*
X001131Y021050D01*
X001070Y021002D01*
X001011Y020952D01*
X000955Y020899D01*
X000902Y020843D01*
X000852Y020784D01*
X000804Y020723D01*
X000759Y020660D01*
X000718Y020595D01*
X000680Y020527D01*
X000645Y020458D01*
X000614Y020388D01*
X000586Y020316D01*
X000562Y020242D01*
X000541Y020168D01*
X000524Y020092D01*
X000511Y020016D01*
X000502Y019939D01*
X000496Y019862D01*
X000494Y019785D01*
X000494Y004037D01*
X000496Y003960D01*
X000502Y003883D01*
X000511Y003806D01*
X000524Y003730D01*
X000541Y003654D01*
X000562Y003580D01*
X000586Y003506D01*
X000614Y003434D01*
X000645Y003364D01*
X000680Y003295D01*
X000718Y003227D01*
X000759Y003162D01*
X000804Y003099D01*
X000852Y003038D01*
X000902Y002979D01*
X000955Y002923D01*
X001011Y002870D01*
X001070Y002820D01*
X001131Y002772D01*
X001194Y002727D01*
X001259Y002686D01*
X001327Y002648D01*
X001396Y002613D01*
X001466Y002582D01*
X001538Y002554D01*
X001612Y002530D01*
X001686Y002509D01*
X001762Y002492D01*
X001838Y002479D01*
X001915Y002470D01*
X001992Y002464D01*
X002069Y002462D01*
M02*
