G75*
%MOIN*%
%OFA0B0*%
%FSLAX24Y24*%
%IPPOS*%
%LPD*%
%AMOC8*
5,1,8,0,0,1.08239X$1,22.5*
%
%ADD10C,0.0020*%
%ADD11C,0.0020*%
%ADD12C,0.0070*%
%ADD13C,0.0030*%
%ADD14C,0.0120*%
%ADD15R,0.1969X1.0236*%
%ADD16C,0.0050*%
%ADD17C,0.0090*%
%ADD18C,0.0197*%
%ADD19C,0.0040*%
%ADD20C,0.0010*%
%ADD21C,0.0080*%
%ADD22C,0.0060*%
%ADD23C,0.0079*%
D10*
X002069Y002462D02*
X036714Y002462D01*
X036791Y002464D01*
X036868Y002470D01*
X036945Y002479D01*
X037021Y002492D01*
X037097Y002509D01*
X037171Y002530D01*
X037245Y002554D01*
X037317Y002582D01*
X037387Y002613D01*
X037456Y002648D01*
X037524Y002686D01*
X037589Y002727D01*
X037652Y002772D01*
X037713Y002820D01*
X037772Y002870D01*
X037828Y002923D01*
X037881Y002979D01*
X037931Y003038D01*
X037979Y003099D01*
X038024Y003162D01*
X038065Y003227D01*
X038103Y003295D01*
X038138Y003364D01*
X038169Y003434D01*
X038197Y003506D01*
X038221Y003580D01*
X038242Y003654D01*
X038259Y003730D01*
X038272Y003806D01*
X038281Y003883D01*
X038287Y003960D01*
X038289Y004037D01*
X038289Y019785D01*
X038287Y019862D01*
X038281Y019939D01*
X038272Y020016D01*
X038259Y020092D01*
X038242Y020168D01*
X038221Y020242D01*
X038197Y020316D01*
X038169Y020388D01*
X038138Y020458D01*
X038103Y020527D01*
X038065Y020595D01*
X038024Y020660D01*
X037979Y020723D01*
X037931Y020784D01*
X037881Y020843D01*
X037828Y020899D01*
X037772Y020952D01*
X037713Y021002D01*
X037652Y021050D01*
X037589Y021095D01*
X037524Y021136D01*
X037456Y021174D01*
X037387Y021209D01*
X037317Y021240D01*
X037245Y021268D01*
X037171Y021292D01*
X037097Y021313D01*
X037021Y021330D01*
X036945Y021343D01*
X036868Y021352D01*
X036791Y021358D01*
X036714Y021360D01*
X002069Y021360D01*
X001992Y021358D01*
X001915Y021352D01*
X001838Y021343D01*
X001762Y021330D01*
X001686Y021313D01*
X001612Y021292D01*
X001538Y021268D01*
X001466Y021240D01*
X001396Y021209D01*
X001327Y021174D01*
X001259Y021136D01*
X001194Y021095D01*
X001131Y021050D01*
X001070Y021002D01*
X001011Y020952D01*
X000955Y020899D01*
X000902Y020843D01*
X000852Y020784D01*
X000804Y020723D01*
X000759Y020660D01*
X000718Y020595D01*
X000680Y020527D01*
X000645Y020458D01*
X000614Y020388D01*
X000586Y020316D01*
X000562Y020242D01*
X000541Y020168D01*
X000524Y020092D01*
X000511Y020016D01*
X000502Y019939D01*
X000496Y019862D01*
X000494Y019785D01*
X000494Y004037D01*
X000496Y003960D01*
X000502Y003883D01*
X000511Y003806D01*
X000524Y003730D01*
X000541Y003654D01*
X000562Y003580D01*
X000586Y003506D01*
X000614Y003434D01*
X000645Y003364D01*
X000680Y003295D01*
X000718Y003227D01*
X000759Y003162D01*
X000804Y003099D01*
X000852Y003038D01*
X000902Y002979D01*
X000955Y002923D01*
X001011Y002870D01*
X001070Y002820D01*
X001131Y002772D01*
X001194Y002727D01*
X001259Y002686D01*
X001327Y002648D01*
X001396Y002613D01*
X001466Y002582D01*
X001538Y002554D01*
X001612Y002530D01*
X001686Y002509D01*
X001762Y002492D01*
X001838Y002479D01*
X001915Y002470D01*
X001992Y002464D01*
X002069Y002462D01*
D11*
X001127Y006993D02*
X001173Y007039D01*
X001173Y007131D01*
X001127Y007177D01*
X001127Y007265D02*
X001081Y007265D01*
X001035Y007311D01*
X001035Y007448D01*
X001035Y007311D02*
X000989Y007265D01*
X000943Y007265D01*
X000897Y007311D01*
X000897Y007448D01*
X001173Y007448D01*
X001173Y007311D01*
X001127Y007265D01*
X000897Y007177D02*
X001081Y006993D01*
X001127Y006993D01*
X000897Y006993D02*
X000897Y007177D01*
X000943Y008038D02*
X000897Y008084D01*
X000897Y008176D01*
X000943Y008222D01*
X001035Y008222D02*
X001081Y008130D01*
X001081Y008084D01*
X001035Y008038D01*
X000943Y008038D01*
X001035Y008222D02*
X001173Y008222D01*
X001173Y008038D01*
X000897Y008310D02*
X000897Y008494D01*
X000897Y008582D02*
X001081Y008582D01*
X001173Y008674D01*
X001081Y008766D01*
X000897Y008766D01*
X001035Y008766D02*
X001035Y008582D01*
X001081Y008494D02*
X001173Y008402D01*
X000897Y008402D01*
X000897Y009219D02*
X000897Y009403D01*
X001081Y009219D01*
X001127Y009219D01*
X001173Y009265D01*
X001173Y009357D01*
X001127Y009403D01*
X001173Y009583D02*
X000897Y009583D01*
X000897Y009675D02*
X000897Y009491D01*
X001081Y009675D02*
X001173Y009583D01*
X001081Y009763D02*
X001173Y009855D01*
X001081Y009947D01*
X000897Y009947D01*
X001035Y009947D02*
X001035Y009763D01*
X001081Y009763D02*
X000897Y009763D01*
X000897Y010536D02*
X001173Y010720D01*
X001127Y010808D02*
X001035Y010808D01*
X000989Y010854D01*
X000989Y010992D01*
X000897Y010992D02*
X001173Y010992D01*
X001173Y010854D01*
X001127Y010808D01*
X000989Y010900D02*
X000897Y010808D01*
X000897Y010720D02*
X001173Y010536D01*
X001173Y011717D02*
X000897Y011901D01*
X000897Y012081D02*
X001173Y012081D01*
X001173Y012173D02*
X001173Y011989D01*
X001173Y011901D02*
X000897Y011717D01*
X000897Y012673D02*
X000897Y012765D01*
X000897Y012719D02*
X001173Y012719D01*
X001173Y012765D02*
X001173Y012673D01*
X001127Y012853D02*
X001173Y012899D01*
X001173Y012991D01*
X001127Y013037D01*
X001081Y013037D01*
X001035Y012991D01*
X001035Y012899D01*
X000989Y012853D01*
X000943Y012853D01*
X000897Y012899D01*
X000897Y012991D01*
X000943Y013037D01*
X000943Y013125D02*
X000897Y013171D01*
X000897Y013263D01*
X000943Y013309D01*
X000897Y013397D02*
X000989Y013489D01*
X000989Y013443D02*
X000989Y013581D01*
X000897Y013581D02*
X001173Y013581D01*
X001173Y013443D01*
X001127Y013397D01*
X001035Y013397D01*
X000989Y013443D01*
X001081Y013309D02*
X001035Y013263D01*
X001035Y013171D01*
X000989Y013125D01*
X000943Y013125D01*
X001127Y013125D02*
X001173Y013171D01*
X001173Y013263D01*
X001127Y013309D01*
X001081Y013309D01*
X000897Y013853D02*
X000897Y014037D01*
X001173Y014037D01*
X001173Y014309D02*
X000897Y014309D01*
X000897Y014125D01*
X000897Y014398D02*
X000897Y014490D01*
X000897Y014444D02*
X001173Y014444D01*
X001173Y014490D02*
X001173Y014398D01*
X001173Y014578D02*
X000989Y014762D01*
X001035Y014716D02*
X000897Y014578D01*
X000897Y014762D02*
X001173Y014762D01*
X001127Y015125D02*
X001081Y015125D01*
X001035Y015171D01*
X000989Y015125D01*
X000943Y015125D01*
X000897Y015171D01*
X000897Y015262D01*
X000943Y015308D01*
X000989Y015397D02*
X001173Y015397D01*
X001127Y015308D02*
X001173Y015262D01*
X001173Y015171D01*
X001127Y015125D01*
X001035Y015171D02*
X001035Y015217D01*
X000989Y015397D02*
X000897Y015488D01*
X000989Y015580D01*
X001173Y015580D01*
X001127Y015668D02*
X001081Y015668D01*
X001035Y015714D01*
X000989Y015668D01*
X000943Y015668D01*
X000897Y015714D01*
X000897Y015806D01*
X000943Y015852D01*
X001035Y015760D02*
X001035Y015714D01*
X001127Y015668D02*
X001173Y015714D01*
X001173Y015806D01*
X001127Y015852D01*
X001173Y016442D02*
X000989Y016442D01*
X000897Y016534D01*
X000989Y016625D01*
X001173Y016625D01*
X001173Y016714D02*
X001173Y016897D01*
X001035Y016897D01*
X001081Y016805D01*
X001081Y016760D01*
X001035Y016714D01*
X000943Y016714D01*
X000897Y016760D01*
X000897Y016851D01*
X000943Y016897D01*
X011318Y013870D02*
X011318Y013594D01*
X011318Y013476D02*
X011410Y013384D01*
X011501Y013476D01*
X011501Y013201D01*
X011590Y013246D02*
X011636Y013201D01*
X011727Y013201D01*
X011773Y013246D01*
X011773Y013430D01*
X011727Y013476D01*
X011636Y013476D01*
X011590Y013430D01*
X011590Y013246D01*
X011862Y013246D02*
X011907Y013201D01*
X011999Y013201D01*
X012045Y013246D01*
X012045Y013292D01*
X011999Y013338D01*
X011907Y013338D01*
X011862Y013384D01*
X011862Y013430D01*
X011907Y013476D01*
X011999Y013476D01*
X012045Y013430D01*
X012133Y013476D02*
X012225Y013476D01*
X012179Y013476D02*
X012179Y013201D01*
X012133Y013201D02*
X012225Y013201D01*
X012605Y013502D02*
X012605Y013782D01*
X012512Y013782D02*
X012698Y013782D01*
X012788Y013782D02*
X012928Y013782D01*
X012975Y013736D01*
X012975Y013642D01*
X012928Y013596D01*
X012788Y013596D01*
X012788Y013502D02*
X012788Y013782D01*
X013064Y013642D02*
X013204Y013642D01*
X013251Y013596D01*
X013251Y013549D01*
X013204Y013502D01*
X013111Y013502D01*
X013064Y013549D01*
X013064Y013642D01*
X013157Y013736D01*
X013251Y013782D01*
X013204Y014093D02*
X013111Y014093D01*
X013064Y014139D01*
X013064Y014233D02*
X013157Y014280D01*
X013204Y014280D01*
X013251Y014233D01*
X013251Y014139D01*
X013204Y014093D01*
X013064Y014233D02*
X013064Y014373D01*
X013251Y014373D01*
X012975Y014326D02*
X012975Y014233D01*
X012928Y014186D01*
X012788Y014186D01*
X012788Y014093D02*
X012788Y014373D01*
X012928Y014373D01*
X012975Y014326D01*
X012698Y014373D02*
X012512Y014373D01*
X012605Y014373D02*
X012605Y014093D01*
X012227Y013988D02*
X012089Y014126D01*
X012043Y014080D02*
X012227Y014263D01*
X012043Y014263D02*
X012043Y013988D01*
X011955Y014034D02*
X011909Y013988D01*
X011817Y013988D01*
X011771Y014034D01*
X011771Y014218D01*
X011817Y014263D01*
X011909Y014263D01*
X011955Y014218D01*
X011683Y014218D02*
X011637Y014263D01*
X011545Y014263D01*
X011499Y014218D01*
X011499Y014172D01*
X011545Y014126D01*
X011637Y014126D01*
X011683Y014080D01*
X011683Y014034D01*
X011637Y013988D01*
X011545Y013988D01*
X011499Y014034D01*
X011501Y013870D02*
X011501Y013594D01*
X011590Y013594D02*
X011682Y013594D01*
X011636Y013594D02*
X011636Y013870D01*
X011590Y013870D02*
X011682Y013870D01*
X011771Y013824D02*
X011771Y013778D01*
X011817Y013732D01*
X011909Y013732D01*
X011955Y013686D01*
X011955Y013640D01*
X011909Y013594D01*
X011817Y013594D01*
X011771Y013640D01*
X011771Y013824D02*
X011817Y013870D01*
X011909Y013870D01*
X011955Y013824D01*
X012043Y013824D02*
X012043Y013640D01*
X012089Y013594D01*
X012181Y013594D01*
X012227Y013640D01*
X012227Y013824D01*
X012181Y013870D01*
X012089Y013870D01*
X012043Y013824D01*
X011501Y013870D02*
X011410Y013778D01*
X011318Y013870D01*
X011318Y013476D02*
X011318Y013201D01*
X012945Y013304D02*
X012945Y013070D01*
X012991Y013023D01*
X013085Y013023D01*
X013131Y013070D01*
X013131Y013304D01*
X013221Y013257D02*
X013268Y013304D01*
X013361Y013304D01*
X013408Y013257D01*
X013408Y013210D01*
X013361Y013164D01*
X013408Y013117D01*
X013408Y013070D01*
X013361Y013023D01*
X013268Y013023D01*
X013221Y013070D01*
X013314Y013164D02*
X013361Y013164D01*
X013204Y014683D02*
X013204Y014963D01*
X013064Y014823D01*
X013251Y014823D01*
X012975Y014823D02*
X012928Y014777D01*
X012788Y014777D01*
X012788Y014683D02*
X012788Y014963D01*
X012928Y014963D01*
X012975Y014917D01*
X012975Y014823D01*
X012698Y014963D02*
X012512Y014963D01*
X012605Y014963D02*
X012605Y014683D01*
X013346Y015858D02*
X013439Y015858D01*
X013486Y015905D01*
X013486Y016138D01*
X013575Y016092D02*
X013622Y016138D01*
X013715Y016138D01*
X013762Y016092D01*
X013762Y016045D01*
X013575Y015858D01*
X013762Y015858D01*
X013346Y015858D02*
X013299Y015905D01*
X013299Y016138D01*
X024013Y019586D02*
X024013Y019772D01*
X024013Y019862D02*
X024013Y020002D01*
X024060Y020049D01*
X024153Y020049D01*
X024200Y020002D01*
X024200Y019862D01*
X024293Y019862D02*
X024013Y019862D01*
X024013Y019679D02*
X024293Y019679D01*
X024293Y020138D02*
X024293Y020325D01*
X024293Y020231D02*
X024013Y020231D01*
X024106Y020138D01*
X024060Y020414D02*
X024013Y020461D01*
X024013Y020554D01*
X024060Y020601D01*
X024246Y020414D01*
X024293Y020461D01*
X024293Y020554D01*
X024246Y020601D01*
X024060Y020601D01*
X024060Y020414D02*
X024246Y020414D01*
X025981Y020461D02*
X025981Y020554D01*
X026028Y020601D01*
X026075Y020601D01*
X026122Y020554D01*
X026168Y020601D01*
X026215Y020601D01*
X026262Y020554D01*
X026262Y020461D01*
X026215Y020414D01*
X026262Y020325D02*
X026262Y020138D01*
X026262Y020231D02*
X025981Y020231D01*
X026075Y020138D01*
X026028Y020049D02*
X026122Y020049D01*
X026168Y020002D01*
X026168Y019862D01*
X026262Y019862D02*
X025981Y019862D01*
X025981Y020002D01*
X026028Y020049D01*
X025981Y019772D02*
X025981Y019586D01*
X025981Y019679D02*
X026262Y019679D01*
X026966Y019373D02*
X027106Y019233D01*
X027106Y019420D01*
X027246Y019373D02*
X026966Y019373D01*
X027246Y019144D02*
X027246Y018957D01*
X027246Y019050D02*
X026966Y019050D01*
X027059Y018957D01*
X027012Y018868D02*
X027106Y018868D01*
X027152Y018821D01*
X027152Y018681D01*
X027246Y018681D02*
X026966Y018681D01*
X026966Y018821D01*
X027012Y018868D01*
X026966Y018591D02*
X026966Y018404D01*
X026966Y018498D02*
X027246Y018498D01*
X027950Y019586D02*
X027950Y019772D01*
X027950Y019862D02*
X027950Y020002D01*
X027997Y020049D01*
X028090Y020049D01*
X028137Y020002D01*
X028137Y019862D01*
X028230Y019862D02*
X027950Y019862D01*
X027950Y019679D02*
X028230Y019679D01*
X028230Y020138D02*
X028230Y020325D01*
X028230Y020414D02*
X028043Y020601D01*
X027997Y020601D01*
X027950Y020554D01*
X027950Y020461D01*
X027997Y020414D01*
X027950Y020231D02*
X028230Y020231D01*
X028230Y020414D02*
X028230Y020601D01*
X027950Y020231D02*
X028043Y020138D01*
X029214Y019420D02*
X029214Y019233D01*
X029214Y019144D02*
X029214Y018957D01*
X029214Y019050D02*
X028934Y019050D01*
X029028Y018957D01*
X029074Y018868D02*
X029121Y018821D01*
X029121Y018681D01*
X029214Y018681D02*
X028934Y018681D01*
X028934Y018821D01*
X028981Y018868D01*
X029074Y018868D01*
X028934Y018591D02*
X028934Y018404D01*
X028934Y018498D02*
X029214Y018498D01*
X029028Y019233D02*
X028934Y019327D01*
X029214Y019327D01*
X026122Y020508D02*
X026122Y020554D01*
X026028Y020414D02*
X025981Y020461D01*
X025231Y019144D02*
X025044Y019144D01*
X024997Y019097D01*
X024997Y019004D01*
X025044Y018957D01*
X025091Y018957D01*
X025137Y019004D01*
X025137Y019144D01*
X025231Y019144D02*
X025277Y019097D01*
X025277Y019004D01*
X025231Y018957D01*
X025137Y018868D02*
X025184Y018821D01*
X025184Y018681D01*
X025277Y018681D02*
X024997Y018681D01*
X024997Y018821D01*
X025044Y018868D01*
X025137Y018868D01*
X024997Y018591D02*
X024997Y018404D01*
X024997Y018498D02*
X025277Y018498D01*
X024660Y013107D02*
X024707Y013060D01*
X024707Y013013D01*
X024660Y012967D01*
X024707Y012920D01*
X024707Y012873D01*
X024660Y012827D01*
X024567Y012827D01*
X024520Y012873D01*
X024431Y012873D02*
X024384Y012827D01*
X024291Y012827D01*
X024244Y012873D01*
X024244Y013060D01*
X024291Y013107D01*
X024384Y013107D01*
X024431Y013060D01*
X024431Y012873D01*
X024431Y012827D02*
X024337Y012920D01*
X024520Y013060D02*
X024567Y013107D01*
X024660Y013107D01*
X024660Y012967D02*
X024614Y012967D01*
X024707Y012319D02*
X024614Y012273D01*
X024520Y012179D01*
X024660Y012179D01*
X024707Y012133D01*
X024707Y012086D01*
X024660Y012039D01*
X024567Y012039D01*
X024520Y012086D01*
X024520Y012179D01*
X024431Y012086D02*
X024431Y012273D01*
X024384Y012319D01*
X024291Y012319D01*
X024244Y012273D01*
X024244Y012086D01*
X024291Y012039D01*
X024384Y012039D01*
X024431Y012086D01*
X024431Y012039D02*
X024337Y012133D01*
X026960Y012099D02*
X026960Y011959D01*
X027240Y011959D01*
X027240Y012099D01*
X027194Y012146D01*
X027007Y012146D01*
X026960Y012099D01*
X026960Y012235D02*
X027100Y012235D01*
X027054Y012329D01*
X027054Y012375D01*
X027100Y012422D01*
X027194Y012422D01*
X027240Y012375D01*
X027240Y012282D01*
X027194Y012235D01*
X026960Y012235D02*
X026960Y012422D01*
X026960Y011870D02*
X026960Y011683D01*
X027240Y011683D01*
X027240Y011870D01*
X027100Y011776D02*
X027100Y011683D01*
X027240Y011593D02*
X027240Y011407D01*
X026960Y011407D01*
X035149Y012286D02*
X035336Y012286D01*
X035426Y012286D02*
X035566Y012286D01*
X035612Y012240D01*
X035612Y012146D01*
X035566Y012099D01*
X035426Y012099D01*
X035426Y012006D02*
X035426Y012286D01*
X035426Y012439D02*
X035426Y012719D01*
X035566Y012719D01*
X035612Y012673D01*
X035612Y012579D01*
X035566Y012533D01*
X035426Y012533D01*
X035243Y012439D02*
X035243Y012719D01*
X035336Y012719D02*
X035149Y012719D01*
X035702Y012673D02*
X035702Y012626D01*
X035749Y012579D01*
X035842Y012579D01*
X035889Y012533D01*
X035889Y012486D01*
X035842Y012439D01*
X035749Y012439D01*
X035702Y012486D01*
X035702Y012533D01*
X035749Y012579D01*
X035842Y012579D02*
X035889Y012626D01*
X035889Y012673D01*
X035842Y012719D01*
X035749Y012719D01*
X035702Y012673D01*
X035702Y012286D02*
X035889Y012286D01*
X035889Y012240D01*
X035702Y012053D01*
X035702Y012006D01*
X035243Y012006D02*
X035243Y012286D01*
X037372Y008542D02*
X037512Y008542D01*
X037559Y008496D01*
X037559Y008309D01*
X037512Y008262D01*
X037372Y008262D01*
X037372Y008542D01*
X037648Y008449D02*
X037741Y008542D01*
X037741Y008262D01*
X037648Y008262D02*
X037835Y008262D01*
X016033Y008192D02*
X015834Y007994D01*
X015768Y008060D02*
X015900Y007928D01*
X015900Y008192D02*
X016033Y008192D01*
X015903Y008321D02*
X015870Y008288D01*
X015738Y008288D01*
X015639Y008189D01*
X015738Y008288D02*
X015738Y008420D01*
X015771Y008453D01*
D12*
X015635Y006168D02*
X015808Y005994D01*
X015808Y005647D01*
X016005Y005647D02*
X016005Y006168D01*
X016265Y006168D01*
X016352Y006081D01*
X016352Y005907D01*
X016265Y005820D01*
X016005Y005820D01*
X016179Y005820D02*
X016352Y005647D01*
X016722Y005647D02*
X016722Y006168D01*
X016549Y006168D02*
X016896Y006168D01*
X017092Y005907D02*
X017440Y005907D01*
X017353Y005647D02*
X017353Y006168D01*
X017092Y005907D01*
X018067Y005734D02*
X018154Y005647D01*
X018327Y005647D01*
X018414Y005734D01*
X018414Y006168D01*
X018611Y005994D02*
X018784Y006168D01*
X018958Y005994D01*
X018958Y005647D01*
X019154Y005647D02*
X019154Y006168D01*
X019415Y006168D01*
X019502Y006081D01*
X019502Y005907D01*
X019415Y005820D01*
X019154Y005820D01*
X019328Y005820D02*
X019502Y005647D01*
X019872Y005647D02*
X019872Y006168D01*
X019698Y006168D02*
X020046Y006168D01*
X020242Y006081D02*
X020329Y006168D01*
X020502Y006168D01*
X020589Y006081D01*
X020589Y005994D01*
X020242Y005647D01*
X020589Y005647D01*
X022032Y005647D02*
X022032Y005994D01*
X022206Y006168D01*
X022380Y005994D01*
X022380Y005647D01*
X022380Y005907D02*
X022032Y005907D01*
X022576Y005907D02*
X022923Y005907D01*
X022836Y005647D02*
X022836Y006168D01*
X022576Y005907D01*
X024394Y005907D02*
X024742Y005907D01*
X024742Y005994D02*
X024742Y005647D01*
X024938Y005734D02*
X025025Y005647D01*
X025199Y005647D01*
X025285Y005734D01*
X025285Y005907D01*
X025199Y005994D01*
X025112Y005994D01*
X024938Y005907D01*
X024938Y006168D01*
X025285Y006168D01*
X024742Y005994D02*
X024568Y006168D01*
X024394Y005994D01*
X024394Y005647D01*
X026757Y005734D02*
X026843Y005647D01*
X027017Y005647D01*
X027104Y005734D01*
X027300Y005907D02*
X027648Y005907D01*
X027561Y005647D02*
X027561Y006168D01*
X027300Y005907D01*
X027104Y006081D02*
X027017Y006168D01*
X026843Y006168D01*
X026757Y006081D01*
X026757Y005734D01*
X029119Y005734D02*
X029206Y005647D01*
X029379Y005647D01*
X029466Y005734D01*
X029663Y005734D02*
X029749Y005647D01*
X029923Y005647D01*
X030010Y005734D01*
X030010Y005907D01*
X029923Y005994D01*
X029836Y005994D01*
X029663Y005907D01*
X029663Y006168D01*
X030010Y006168D01*
X029466Y006081D02*
X029379Y006168D01*
X029206Y006168D01*
X029119Y006081D01*
X029119Y005734D01*
X029135Y006828D02*
X029135Y007002D01*
X028875Y006828D02*
X028875Y007175D01*
X028875Y007372D02*
X028875Y007459D01*
X029396Y007459D01*
X029396Y007545D02*
X029396Y007372D01*
X029396Y007734D02*
X029396Y007908D01*
X029396Y007821D02*
X029048Y007821D01*
X029048Y007734D01*
X028875Y007821D02*
X028788Y007821D01*
X029135Y008097D02*
X029309Y008097D01*
X029396Y008184D01*
X029396Y008444D01*
X029483Y008444D02*
X029048Y008444D01*
X029048Y008184D01*
X029135Y008097D01*
X029569Y008270D02*
X029569Y008357D01*
X029483Y008444D01*
X029396Y008640D02*
X028875Y008640D01*
X029048Y008727D02*
X029048Y008901D01*
X029135Y008988D01*
X029396Y008988D01*
X029309Y009271D02*
X028962Y009271D01*
X029048Y009184D02*
X029048Y009358D01*
X029309Y009271D02*
X029396Y009358D01*
X029048Y008727D02*
X029135Y008640D01*
X028962Y010091D02*
X029309Y010091D01*
X029396Y010177D01*
X029396Y010351D01*
X029309Y010438D01*
X029309Y010634D02*
X029135Y010634D01*
X029048Y010721D01*
X029048Y010895D01*
X029135Y010982D01*
X029309Y010982D01*
X029396Y010895D01*
X029396Y010721D01*
X029309Y010634D01*
X028962Y010438D02*
X028875Y010351D01*
X028875Y010177D01*
X028962Y010091D01*
X029048Y011178D02*
X029048Y011439D01*
X029135Y011525D01*
X029396Y011525D01*
X029309Y011809D02*
X028962Y011809D01*
X029048Y011722D02*
X029048Y011896D01*
X029048Y012084D02*
X029396Y012084D01*
X029222Y012084D02*
X029048Y012258D01*
X029048Y012345D01*
X029135Y012538D02*
X029309Y012538D01*
X029396Y012624D01*
X029396Y012798D01*
X029309Y012885D01*
X029135Y012885D01*
X029048Y012798D01*
X029048Y012624D01*
X029135Y012538D01*
X028875Y013081D02*
X028875Y013168D01*
X029396Y013168D01*
X029396Y013081D02*
X029396Y013255D01*
X029396Y013444D02*
X029396Y013617D01*
X029396Y013531D02*
X028875Y013531D01*
X028875Y013444D01*
X029135Y013806D02*
X029048Y013893D01*
X029048Y014067D01*
X029135Y014154D01*
X029222Y014154D01*
X029222Y013806D01*
X029309Y013806D02*
X029135Y013806D01*
X029309Y013806D02*
X029396Y013893D01*
X029396Y014067D01*
X029396Y014350D02*
X029048Y014350D01*
X029222Y014350D02*
X029048Y014524D01*
X029048Y014611D01*
X029048Y015347D02*
X029396Y015521D01*
X029048Y015694D01*
X028962Y015891D02*
X028875Y015978D01*
X028875Y016151D01*
X028962Y016238D01*
X029048Y016238D01*
X029135Y016151D01*
X029222Y016238D01*
X029309Y016238D01*
X029396Y016151D01*
X029396Y015978D01*
X029309Y015891D01*
X029135Y016064D02*
X029135Y016151D01*
X029309Y016435D02*
X029309Y016521D01*
X029396Y016521D01*
X029396Y016435D01*
X029309Y016435D01*
X029309Y016706D02*
X029396Y016793D01*
X029396Y016967D01*
X029309Y017054D01*
X028962Y017054D01*
X028875Y016967D01*
X028875Y016793D01*
X028962Y016706D01*
X029048Y016706D01*
X029135Y016793D01*
X029135Y017054D01*
X029309Y017250D02*
X029309Y017337D01*
X029396Y017337D01*
X029396Y017250D01*
X029309Y017250D01*
X029396Y017522D02*
X029396Y017869D01*
X029396Y017696D02*
X028875Y017696D01*
X029048Y017522D01*
X031185Y017654D02*
X031359Y017741D01*
X031533Y017915D01*
X031272Y017915D01*
X031185Y018002D01*
X031185Y018088D01*
X031272Y018175D01*
X031446Y018175D01*
X031533Y018088D01*
X031533Y017915D01*
X031729Y017654D02*
X032077Y017654D01*
X031903Y017654D02*
X031903Y018175D01*
X032273Y018175D02*
X032447Y018002D01*
X032360Y018002D02*
X032620Y018002D01*
X032620Y018175D02*
X032620Y017654D01*
X032360Y017654D01*
X032273Y017741D01*
X032273Y017915D01*
X032360Y018002D01*
X032817Y017915D02*
X033164Y017915D01*
X033164Y017828D02*
X032990Y017654D01*
X032817Y017828D01*
X032817Y018175D01*
X033164Y018175D02*
X033164Y017828D01*
X033361Y017654D02*
X033361Y018088D01*
X033447Y018175D01*
X033621Y018175D01*
X033708Y018088D01*
X033708Y017654D01*
X034583Y016809D02*
X034583Y016549D01*
X035104Y016549D01*
X035104Y016809D01*
X035018Y016896D01*
X034670Y016896D01*
X034583Y016809D01*
X034583Y016352D02*
X035104Y016352D01*
X034931Y016179D01*
X035104Y016005D01*
X034583Y016005D01*
X034670Y015808D02*
X034583Y015722D01*
X034583Y015548D01*
X034670Y015461D01*
X034757Y015461D01*
X034844Y015548D01*
X034844Y015722D01*
X034931Y015808D01*
X035018Y015808D01*
X035104Y015722D01*
X035104Y015548D01*
X035018Y015461D01*
X029396Y011896D02*
X029309Y011809D01*
X029396Y011178D02*
X029048Y011178D01*
X032395Y009535D02*
X032395Y009362D01*
X032482Y009275D01*
X032655Y009275D01*
X032742Y009362D01*
X032742Y009535D01*
X032655Y009622D01*
X032482Y009622D01*
X032395Y009535D01*
X032482Y009078D02*
X032395Y008992D01*
X032395Y008818D01*
X032482Y008731D01*
X032655Y008731D01*
X032742Y008818D01*
X032742Y008992D01*
X032655Y009078D01*
X032482Y009078D01*
X032308Y008535D02*
X032221Y008535D01*
X032308Y008535D02*
X032482Y008361D01*
X032742Y008361D01*
X032482Y008361D02*
X032308Y008187D01*
X032221Y008187D01*
X032655Y007459D02*
X032742Y007459D01*
X032742Y007372D01*
X032655Y007372D01*
X032655Y007459D01*
X032655Y007175D02*
X032742Y007088D01*
X032742Y006915D01*
X032655Y006828D01*
X032482Y006915D02*
X032482Y007088D01*
X032569Y007175D01*
X032655Y007175D01*
X032482Y006915D02*
X032395Y006828D01*
X032308Y006828D01*
X032221Y006915D01*
X032221Y007088D01*
X032308Y007175D01*
X032265Y006168D02*
X032178Y006081D01*
X032265Y006168D02*
X032438Y006168D01*
X032525Y006081D01*
X032525Y005994D01*
X032178Y005647D01*
X032525Y005647D01*
X032722Y005734D02*
X032808Y005647D01*
X032982Y005647D01*
X033069Y005734D01*
X033265Y005647D02*
X033613Y005994D01*
X033613Y006081D01*
X033526Y006168D01*
X033352Y006168D01*
X033265Y006081D01*
X033069Y006081D02*
X032982Y006168D01*
X032808Y006168D01*
X032722Y006081D01*
X032722Y005734D01*
X031989Y005647D02*
X031815Y005647D01*
X031902Y005647D02*
X031902Y006168D01*
X031815Y006168D02*
X031989Y006168D01*
X033265Y005647D02*
X033613Y005647D01*
X034583Y005831D02*
X034583Y006178D01*
X034757Y006091D02*
X034757Y006005D01*
X034844Y005831D01*
X034583Y005831D01*
X035018Y005831D02*
X035104Y005918D01*
X035104Y006091D01*
X035018Y006178D01*
X034844Y006178D01*
X034757Y006091D01*
X034583Y006375D02*
X034931Y006375D01*
X035104Y006548D01*
X034931Y006722D01*
X034583Y006722D01*
X034757Y006919D02*
X034757Y007005D01*
X035104Y007005D01*
X035104Y006919D02*
X035104Y007092D01*
X035104Y007281D02*
X034757Y007281D01*
X034757Y007542D01*
X034844Y007628D01*
X035104Y007628D01*
X034583Y007005D02*
X034497Y007005D01*
X029396Y006828D02*
X028875Y006828D01*
X018958Y005907D02*
X018611Y005907D01*
X018611Y005994D02*
X018611Y005647D01*
X018067Y005734D02*
X018067Y006168D01*
X015808Y005907D02*
X015461Y005907D01*
X015461Y005994D02*
X015635Y006168D01*
X015461Y005994D02*
X015461Y005647D01*
X015265Y005734D02*
X015265Y006168D01*
X014917Y006168D02*
X014917Y005734D01*
X015004Y005647D01*
X015178Y005647D01*
X015265Y005734D01*
X013140Y005647D02*
X012793Y005647D01*
X013140Y005994D01*
X013140Y006081D01*
X013053Y006168D01*
X012880Y006168D01*
X012793Y006081D01*
X012604Y006168D02*
X012430Y006168D01*
X012517Y006168D02*
X012517Y005647D01*
X012430Y005647D02*
X012604Y005647D01*
X012234Y005907D02*
X012147Y005820D01*
X011887Y005820D01*
X011887Y005647D02*
X011887Y006168D01*
X012147Y006168D01*
X012234Y006081D01*
X012234Y005907D01*
X011690Y005820D02*
X011690Y005734D01*
X011603Y005647D01*
X011430Y005647D01*
X011343Y005734D01*
X011430Y005907D02*
X011603Y005907D01*
X011690Y005820D01*
X011430Y005907D02*
X011343Y005994D01*
X011343Y006081D01*
X011430Y006168D01*
X011603Y006168D01*
X011690Y006081D01*
X009294Y006081D02*
X009294Y005994D01*
X008946Y005647D01*
X009294Y005647D01*
X008750Y005734D02*
X008663Y005647D01*
X008490Y005647D01*
X008403Y005734D01*
X008403Y006081D01*
X008490Y006168D01*
X008663Y006168D01*
X008750Y006081D01*
X008946Y006081D02*
X009033Y006168D01*
X009207Y006168D01*
X009294Y006081D01*
X008206Y006081D02*
X008206Y005734D01*
X008119Y005647D01*
X007859Y005647D01*
X007859Y006168D01*
X008119Y006168D01*
X008206Y006081D01*
X007663Y005994D02*
X007663Y005647D01*
X007663Y005907D02*
X007315Y005907D01*
X007315Y005994D02*
X007489Y006168D01*
X007663Y005994D01*
X007315Y005994D02*
X007315Y005647D01*
X006144Y005647D02*
X005797Y005647D01*
X005971Y005647D02*
X005971Y006168D01*
X005797Y005994D01*
X005600Y006081D02*
X005514Y006168D01*
X005340Y006168D01*
X005253Y006081D01*
X005253Y005734D01*
X005340Y005647D01*
X005514Y005647D01*
X005600Y005734D01*
X005057Y005734D02*
X005057Y006081D01*
X004970Y006168D01*
X004709Y006168D01*
X004709Y005647D01*
X004970Y005647D01*
X005057Y005734D01*
X004513Y005647D02*
X004513Y005994D01*
X004339Y006168D01*
X004166Y005994D01*
X004166Y005647D01*
X004166Y005907D02*
X004513Y005907D01*
X008206Y010076D02*
X008206Y010597D01*
X008380Y010423D01*
X008553Y010597D01*
X008553Y010076D01*
X008761Y010336D02*
X009352Y010336D01*
X009273Y010257D01*
X009352Y010336D02*
X009273Y010415D01*
X008368Y010730D02*
X008368Y011320D01*
X008446Y011242D01*
X008368Y011320D02*
X008289Y011242D01*
X008293Y012635D02*
X008466Y012635D01*
X008553Y012722D01*
X008553Y012895D01*
X008380Y012895D01*
X008206Y012722D02*
X008293Y012635D01*
X008206Y012722D02*
X008206Y013069D01*
X008293Y013156D01*
X008466Y013156D01*
X008553Y013069D01*
X008761Y012895D02*
X009352Y012895D01*
X009273Y012817D01*
X009352Y012895D02*
X009273Y012974D01*
X008368Y013289D02*
X008368Y013880D01*
X008446Y013801D01*
X008368Y013880D02*
X008289Y013801D01*
X008616Y017654D02*
X008876Y017915D01*
X008529Y017915D01*
X008333Y017915D02*
X007985Y017915D01*
X007789Y018088D02*
X007702Y018175D01*
X007528Y018175D01*
X007442Y018088D01*
X007442Y018002D01*
X007528Y017915D01*
X007615Y017915D01*
X007528Y017915D02*
X007442Y017828D01*
X007442Y017741D01*
X007528Y017654D01*
X007702Y017654D01*
X007789Y017741D01*
X008616Y017654D02*
X008616Y018175D01*
X009247Y018175D02*
X009247Y017654D01*
X009420Y017654D02*
X009073Y017654D01*
X010198Y017741D02*
X010284Y017654D01*
X010458Y017654D01*
X010545Y017741D01*
X010741Y017915D02*
X011089Y017915D01*
X011285Y017915D02*
X011632Y017915D01*
X011372Y017654D01*
X011372Y018175D01*
X012003Y018175D02*
X012003Y017654D01*
X012176Y017654D02*
X011829Y017654D01*
X012560Y018175D02*
X012907Y018175D01*
X012733Y018175D02*
X012733Y017654D01*
X012907Y017828D01*
X013103Y017915D02*
X013451Y017915D01*
X013647Y017915D02*
X013995Y017915D01*
X013734Y017654D01*
X013734Y018175D01*
X014365Y018175D02*
X014365Y017654D01*
X014538Y017654D02*
X014191Y017654D01*
X014922Y017915D02*
X015269Y017915D01*
X015009Y017654D01*
X015009Y018175D01*
X015466Y017915D02*
X015813Y017915D01*
X016009Y018175D02*
X016357Y018175D01*
X016183Y018175D02*
X016183Y017654D01*
X016357Y017828D01*
X016553Y017654D02*
X016901Y017654D01*
X016727Y017654D02*
X016727Y018175D01*
X017284Y018088D02*
X017371Y018175D01*
X017545Y018175D01*
X017631Y018088D01*
X017458Y017915D02*
X017371Y017915D01*
X017284Y018002D01*
X017284Y018088D01*
X017371Y017915D02*
X017284Y017828D01*
X017284Y017741D01*
X017371Y017654D01*
X017545Y017654D01*
X017631Y017741D01*
X017828Y017915D02*
X018175Y017915D01*
X018372Y018175D02*
X018719Y018175D01*
X018545Y018175D02*
X018545Y017654D01*
X018719Y017828D01*
X018915Y017654D02*
X019263Y017654D01*
X019089Y017654D02*
X019089Y018175D01*
X019646Y018175D02*
X019994Y018175D01*
X019646Y017828D01*
X019646Y017741D01*
X019733Y017654D01*
X019907Y017654D01*
X019994Y017741D01*
X020190Y017915D02*
X020537Y017915D01*
X020734Y018175D02*
X021081Y018175D01*
X020908Y018175D02*
X020908Y017654D01*
X021081Y017828D01*
X021278Y017654D02*
X021625Y017654D01*
X021451Y017654D02*
X021451Y018175D01*
X022009Y018175D02*
X022356Y018175D01*
X022182Y018175D02*
X022182Y017654D01*
X022356Y017828D01*
X022552Y017915D02*
X022900Y017915D01*
X023096Y018175D02*
X023443Y018175D01*
X023270Y018175D02*
X023270Y017654D01*
X023443Y017828D01*
X023640Y017654D02*
X023987Y017654D01*
X023814Y017654D02*
X023814Y018175D01*
X010545Y018175D02*
X010198Y017828D01*
X010198Y017741D01*
X010198Y018175D02*
X010545Y018175D01*
X006271Y017654D02*
X005923Y017654D01*
X006097Y017654D02*
X006097Y018175D01*
X005727Y017915D02*
X005380Y017915D01*
X005183Y017915D02*
X004836Y017915D01*
X004639Y017915D02*
X004379Y017654D01*
X004379Y018175D01*
X004292Y017915D02*
X004639Y017915D01*
X005466Y018175D02*
X005466Y017654D01*
X005727Y017915D01*
D13*
X024645Y019376D02*
X024888Y019376D01*
X024767Y019376D02*
X024767Y019012D01*
X024888Y019134D01*
X025008Y019073D02*
X025069Y019012D01*
X025251Y019012D01*
X025251Y019376D01*
X025069Y019376D01*
X025008Y019316D01*
X025008Y019073D01*
X026614Y019012D02*
X026857Y019255D01*
X026796Y019194D02*
X026614Y019376D01*
X026857Y019376D02*
X026857Y019012D01*
X026976Y019073D02*
X027037Y019012D01*
X027158Y019012D01*
X027219Y019073D01*
X027219Y019316D01*
X027158Y019376D01*
X027037Y019376D01*
X026976Y019316D01*
X027478Y020193D02*
X027660Y020193D01*
X027660Y020557D01*
X027478Y020557D01*
X027417Y020497D01*
X027417Y020254D01*
X027478Y020193D01*
X027779Y020193D02*
X027901Y020315D01*
X028022Y020193D01*
X028022Y020557D01*
X028142Y020497D02*
X028203Y020557D01*
X028324Y020557D01*
X028385Y020497D01*
X028385Y020254D01*
X028324Y020193D01*
X028203Y020193D01*
X028142Y020254D01*
X027779Y020193D02*
X027779Y020557D01*
X026235Y020557D02*
X026235Y020193D01*
X026053Y020193D01*
X025992Y020254D01*
X025992Y020497D01*
X026053Y020557D01*
X026235Y020557D01*
X025872Y020497D02*
X025630Y020254D01*
X025630Y020497D01*
X025690Y020557D01*
X025812Y020557D01*
X025872Y020497D01*
X025872Y020254D01*
X025812Y020193D01*
X025690Y020193D01*
X025630Y020254D01*
X028582Y019316D02*
X028643Y019376D01*
X028764Y019376D01*
X028825Y019316D01*
X028945Y019316D02*
X028945Y019073D01*
X029006Y019012D01*
X029188Y019012D01*
X029188Y019376D01*
X029006Y019376D01*
X028945Y019316D01*
X028704Y019194D02*
X028643Y019194D01*
X028582Y019255D01*
X028582Y019316D01*
X028643Y019194D02*
X028582Y019134D01*
X028582Y019073D01*
X028643Y019012D01*
X028764Y019012D01*
X028825Y019073D01*
X029627Y020193D02*
X029567Y020254D01*
X029567Y020315D01*
X029809Y020557D01*
X029567Y020557D01*
X029929Y020497D02*
X029929Y020254D01*
X029990Y020193D01*
X030172Y020193D01*
X030172Y020557D01*
X029990Y020557D01*
X029929Y020497D01*
X029809Y020254D02*
X029749Y020193D01*
X029627Y020193D01*
D14*
X028386Y017097D02*
X028386Y016520D01*
X027521Y016520D01*
X027810Y016190D02*
X028386Y016190D01*
X027954Y016190D02*
X027954Y015614D01*
X027810Y015614D02*
X027521Y015902D01*
X027810Y016190D01*
X027810Y015614D02*
X028386Y015614D01*
X028386Y015298D02*
X028386Y015009D01*
X028386Y015154D02*
X027521Y015154D01*
X027521Y015298D02*
X027521Y015009D01*
X027666Y014680D02*
X027954Y014680D01*
X028098Y014536D01*
X028098Y014103D01*
X028386Y014103D02*
X027521Y014103D01*
X027521Y014536D01*
X027666Y014680D01*
X028098Y014392D02*
X028386Y014680D01*
X028386Y013774D02*
X028386Y013197D01*
X027521Y013197D01*
X027521Y013774D01*
X027954Y013485D02*
X027954Y013197D01*
X027954Y012867D02*
X027954Y012291D01*
X027810Y012291D02*
X027521Y012579D01*
X027810Y012867D01*
X028386Y012867D01*
X028386Y012291D02*
X027810Y012291D01*
X027666Y011055D02*
X027521Y010911D01*
X027521Y010622D01*
X027666Y010478D01*
X028242Y010478D01*
X028386Y010622D01*
X028386Y010911D01*
X028242Y011055D01*
X028386Y010148D02*
X028098Y009860D01*
X028098Y010004D02*
X028098Y009572D01*
X028386Y009572D02*
X027521Y009572D01*
X027521Y010004D01*
X027666Y010148D01*
X027954Y010148D01*
X028098Y010004D01*
X028242Y009242D02*
X027521Y009242D01*
X027521Y008665D02*
X028242Y008665D01*
X028386Y008810D01*
X028386Y009098D01*
X028242Y009242D01*
X028242Y008336D02*
X028386Y008192D01*
X028386Y007903D01*
X028242Y007759D01*
X027954Y007903D02*
X027954Y008192D01*
X028098Y008336D01*
X028242Y008336D01*
X027954Y007903D02*
X027810Y007759D01*
X027666Y007759D01*
X027521Y007903D01*
X027521Y008192D01*
X027666Y008336D01*
X027666Y007430D02*
X027521Y007285D01*
X027521Y006997D01*
X027666Y006853D01*
X028242Y006853D01*
X028386Y006997D01*
X028386Y007285D01*
X028242Y007430D01*
X027666Y007430D01*
D15*
X030809Y011911D03*
D16*
X026734Y012502D02*
X026734Y011320D01*
X025435Y011320D01*
X025435Y012502D01*
X026734Y012502D01*
X024765Y012639D02*
X024765Y011970D01*
X024254Y011970D01*
X024254Y012639D01*
X024765Y012639D01*
X024765Y011852D02*
X024254Y011852D01*
X024254Y011183D01*
X024765Y011183D01*
X024765Y011852D01*
X022036Y011772D02*
X019531Y009266D01*
X019252Y009266D01*
X016747Y011772D01*
X016747Y012050D01*
X019252Y014556D01*
X019531Y014556D01*
X022036Y012050D01*
X022036Y011772D01*
X017164Y009079D02*
X016273Y008188D01*
X014881Y009580D01*
X015772Y010471D01*
X017164Y009079D01*
X016896Y011911D02*
X016898Y011936D01*
X016904Y011960D01*
X016913Y011982D01*
X016926Y012003D01*
X016942Y012022D01*
X016961Y012038D01*
X016982Y012051D01*
X017004Y012060D01*
X017028Y012066D01*
X017053Y012068D01*
X017078Y012066D01*
X017102Y012060D01*
X017124Y012051D01*
X017145Y012038D01*
X017164Y012022D01*
X017180Y012003D01*
X017193Y011982D01*
X017202Y011960D01*
X017208Y011936D01*
X017210Y011911D01*
X017208Y011886D01*
X017202Y011862D01*
X017193Y011840D01*
X017180Y011819D01*
X017164Y011800D01*
X017145Y011784D01*
X017124Y011771D01*
X017102Y011762D01*
X017078Y011756D01*
X017053Y011754D01*
X017028Y011756D01*
X017004Y011762D01*
X016982Y011771D01*
X016961Y011784D01*
X016942Y011800D01*
X016926Y011819D01*
X016913Y011840D01*
X016904Y011862D01*
X016898Y011886D01*
X016896Y011911D01*
X014470Y013683D02*
X013289Y013683D01*
X013289Y015651D01*
X014470Y015651D01*
X014470Y013683D01*
X009803Y013067D02*
X009574Y012723D01*
X009803Y012723D02*
X009574Y013067D01*
X008326Y014101D02*
X008326Y014273D01*
X008441Y014388D01*
X008441Y014445D01*
X008326Y014273D02*
X008211Y014388D01*
X008211Y014445D01*
X008211Y011886D02*
X008441Y011542D01*
X008211Y011542D02*
X008441Y011886D01*
X009574Y010508D02*
X009574Y010451D01*
X009688Y010336D01*
X009688Y010164D01*
X009688Y010336D02*
X009803Y010451D01*
X009803Y010508D01*
X009943Y005454D02*
X006793Y005454D01*
X006793Y002580D01*
X009943Y002580D01*
X009943Y005454D01*
X010336Y005454D02*
X014273Y005454D01*
X014273Y002580D01*
X010336Y002580D01*
X010336Y005454D01*
X006793Y005454D02*
X003643Y005454D01*
X003643Y002580D01*
X006793Y002580D01*
X006793Y005454D01*
X014667Y005454D02*
X014667Y002580D01*
X017817Y002580D01*
X017817Y005454D01*
X014667Y005454D01*
X017817Y005454D02*
X020966Y005454D01*
X020966Y002580D01*
X017817Y002580D01*
X017817Y005454D01*
X021360Y005454D02*
X023722Y005454D01*
X026084Y005454D01*
X028446Y005454D01*
X030809Y005454D01*
X030809Y002580D01*
X028446Y002580D01*
X028446Y005454D01*
X028446Y002580D01*
X026084Y002580D01*
X026084Y005454D01*
X026084Y002580D01*
X023722Y002580D01*
X023722Y005454D01*
X023722Y002580D01*
X021360Y002580D01*
X021360Y005454D01*
X031202Y005454D02*
X031202Y002580D01*
X034352Y002580D01*
X034352Y005454D01*
X031202Y005454D01*
X035297Y005612D02*
X035297Y007974D01*
X038171Y007974D01*
X038171Y005612D01*
X035297Y005612D01*
X035864Y008852D02*
X036214Y008852D01*
X036214Y009852D01*
X035864Y009852D01*
X035864Y008852D01*
X036214Y008852D02*
X036264Y008852D01*
X036264Y009852D01*
X036214Y009852D01*
X036264Y009852D02*
X037564Y009852D01*
X037564Y008852D01*
X036264Y008852D01*
X036380Y010376D02*
X038348Y010376D01*
X038348Y013446D01*
X036380Y013446D01*
X036380Y010376D01*
X035297Y014273D02*
X035297Y018210D01*
X038171Y018210D01*
X038171Y014273D01*
X035297Y014273D01*
X034352Y018368D02*
X030415Y018368D01*
X030415Y021242D01*
X034352Y021242D01*
X034352Y018368D01*
X024116Y018368D02*
X021754Y018368D01*
X019391Y018368D01*
X017029Y018368D01*
X014667Y018368D01*
X012305Y018368D01*
X012305Y021242D01*
X014667Y021242D01*
X014667Y018368D01*
X014667Y021242D01*
X017029Y021242D01*
X017029Y018368D01*
X017029Y021242D01*
X019391Y021242D01*
X019391Y018368D01*
X019391Y021242D01*
X021754Y021242D01*
X021754Y018368D01*
X021754Y021242D01*
X024116Y021242D01*
X024116Y018368D01*
X012305Y018368D02*
X009943Y018368D01*
X006793Y018368D01*
X003643Y018368D01*
X003643Y021242D01*
X006793Y021242D01*
X006793Y018368D01*
X006793Y021242D01*
X009943Y021242D01*
X009943Y018368D01*
X009943Y021242D01*
X012305Y021242D01*
X012305Y018368D01*
D17*
X015514Y016590D02*
X015514Y016241D01*
X015281Y016009D01*
X015281Y015892D01*
X015514Y016241D02*
X015747Y016009D01*
X015747Y015892D01*
X016006Y016125D02*
X016006Y016590D01*
X016472Y016590D02*
X016472Y016125D01*
X016239Y015892D01*
X016006Y016125D01*
X016006Y016241D02*
X016472Y016241D01*
X016731Y016590D02*
X016731Y015892D01*
X017197Y015892D02*
X017197Y016590D01*
X016964Y016358D01*
X016731Y016590D01*
X018181Y016474D02*
X018298Y016590D01*
X018530Y016590D01*
X018647Y016474D01*
X018530Y016241D02*
X018298Y016241D01*
X018181Y016358D01*
X018181Y016474D01*
X018530Y016241D02*
X018647Y016125D01*
X018647Y016009D01*
X018530Y015892D01*
X018298Y015892D01*
X018181Y016009D01*
X018897Y015892D02*
X019130Y015892D01*
X019014Y015892D02*
X019014Y016590D01*
X019130Y016590D02*
X018897Y016590D01*
X019390Y016590D02*
X019390Y015892D01*
X019390Y016241D02*
X019855Y016241D01*
X019855Y016590D02*
X019855Y015892D01*
X020115Y015892D02*
X020580Y015892D01*
X020347Y015892D02*
X020347Y016590D01*
X021565Y016009D02*
X021565Y015892D01*
X021565Y016009D02*
X021797Y016241D01*
X021797Y016590D01*
X021797Y016241D02*
X022030Y016009D01*
X022030Y015892D01*
X022755Y015892D02*
X022755Y016590D01*
X022290Y016590D01*
X023248Y016241D02*
X023480Y016241D01*
X023480Y015892D02*
X023015Y015892D01*
X023480Y015892D02*
X023480Y016590D01*
D18*
X025691Y016439D02*
X026478Y016832D01*
X025691Y017226D01*
X026478Y016832D02*
X015257Y016832D01*
D19*
X015344Y019659D02*
X015651Y019659D01*
X015498Y019659D02*
X015498Y020120D01*
X015344Y019966D01*
X015191Y020120D02*
X015037Y020120D01*
X015114Y020120D02*
X015114Y019736D01*
X015037Y019659D01*
X014961Y019659D01*
X014884Y019736D01*
X015805Y019736D02*
X015881Y019659D01*
X016035Y019659D01*
X016111Y019736D01*
X016111Y019813D01*
X016035Y019890D01*
X015958Y019890D01*
X016035Y019890D02*
X016111Y019966D01*
X016111Y020043D01*
X016035Y020120D01*
X015881Y020120D01*
X015805Y020043D01*
X017246Y019736D02*
X017323Y019659D01*
X017399Y019659D01*
X017476Y019736D01*
X017476Y020120D01*
X017399Y020120D02*
X017553Y020120D01*
X017706Y019966D02*
X017860Y020120D01*
X017860Y019659D01*
X018013Y019659D02*
X017706Y019659D01*
X018167Y019736D02*
X018167Y020043D01*
X018244Y020120D01*
X018397Y020120D01*
X018474Y020043D01*
X018167Y019736D01*
X018244Y019659D01*
X018397Y019659D01*
X018474Y019736D01*
X018474Y020043D01*
X019608Y019736D02*
X019685Y019659D01*
X019762Y019659D01*
X019838Y019736D01*
X019838Y020120D01*
X019762Y020120D02*
X019915Y020120D01*
X020069Y019890D02*
X020299Y019890D01*
X020376Y019813D01*
X020376Y019736D01*
X020299Y019659D01*
X020145Y019659D01*
X020069Y019736D01*
X020069Y019890D01*
X020222Y020043D01*
X020376Y020120D01*
X021970Y019736D02*
X022047Y019659D01*
X022124Y019659D01*
X022201Y019736D01*
X022201Y020120D01*
X022277Y020120D02*
X022124Y020120D01*
X022431Y019966D02*
X022584Y020120D01*
X022584Y019659D01*
X022431Y019659D02*
X022738Y019659D01*
X030632Y019736D02*
X030709Y019659D01*
X030785Y019659D01*
X030862Y019736D01*
X030862Y020120D01*
X030785Y020120D02*
X030939Y020120D01*
X031092Y019966D02*
X031246Y020120D01*
X031246Y019659D01*
X031399Y019659D02*
X031092Y019659D01*
X031553Y019736D02*
X031629Y019659D01*
X031783Y019659D01*
X031860Y019736D01*
X031860Y020043D01*
X031783Y020120D01*
X031629Y020120D01*
X031553Y020043D01*
X031553Y019966D01*
X031629Y019890D01*
X031860Y019890D01*
X036588Y017726D02*
X037049Y017726D01*
X037049Y017573D02*
X037049Y017880D01*
X036742Y017573D02*
X036588Y017726D01*
X036665Y017420D02*
X036588Y017343D01*
X036588Y017189D01*
X036665Y017113D01*
X036588Y016959D02*
X036588Y016806D01*
X036588Y016882D02*
X036972Y016882D01*
X037049Y016806D01*
X037049Y016729D01*
X036972Y016652D01*
X037049Y017113D02*
X036742Y017420D01*
X036665Y017420D01*
X037049Y017420D02*
X037049Y017113D01*
X036972Y007644D02*
X037049Y007567D01*
X037049Y007414D01*
X036972Y007337D01*
X036818Y007337D02*
X036742Y007490D01*
X036742Y007567D01*
X036818Y007644D01*
X036972Y007644D01*
X036818Y007337D02*
X036588Y007337D01*
X036588Y007644D01*
X036588Y007183D02*
X036588Y007030D01*
X036588Y007107D02*
X036972Y007107D01*
X037049Y007030D01*
X037049Y006953D01*
X036972Y006876D01*
X034022Y004163D02*
X033868Y004086D01*
X033715Y003933D01*
X033945Y003933D01*
X034022Y003856D01*
X034022Y003779D01*
X033945Y003703D01*
X033791Y003703D01*
X033715Y003779D01*
X033715Y003933D01*
X033561Y003703D02*
X033254Y003703D01*
X033408Y003703D02*
X033408Y004163D01*
X033254Y004010D01*
X033101Y004163D02*
X032947Y004163D01*
X033024Y004163D02*
X033024Y003779D01*
X032947Y003703D01*
X032871Y003703D01*
X032794Y003779D01*
X030478Y003933D02*
X030171Y003933D01*
X030402Y004163D01*
X030402Y003703D01*
X030018Y003703D02*
X029711Y003703D01*
X029864Y003703D02*
X029864Y004163D01*
X029711Y004010D01*
X029558Y004163D02*
X029404Y004163D01*
X029481Y004163D02*
X029481Y003779D01*
X029404Y003703D01*
X029327Y003703D01*
X029251Y003779D01*
X028116Y003703D02*
X027809Y003703D01*
X028116Y004010D01*
X028116Y004086D01*
X028039Y004163D01*
X027886Y004163D01*
X027809Y004086D01*
X027502Y004163D02*
X027502Y003703D01*
X027349Y003703D02*
X027656Y003703D01*
X027119Y003779D02*
X027119Y004163D01*
X027195Y004163D02*
X027042Y004163D01*
X027349Y004010D02*
X027502Y004163D01*
X027119Y003779D02*
X027042Y003703D01*
X026965Y003703D01*
X026888Y003779D01*
X025754Y003779D02*
X025677Y003703D01*
X025524Y003703D01*
X025447Y003779D01*
X025447Y003856D01*
X025524Y003933D01*
X025677Y003933D01*
X025754Y003856D01*
X025754Y003779D01*
X025677Y003933D02*
X025754Y004010D01*
X025754Y004086D01*
X025677Y004163D01*
X025524Y004163D01*
X025447Y004086D01*
X025447Y004010D01*
X025524Y003933D01*
X025294Y004163D02*
X025140Y004163D01*
X025217Y004163D02*
X025217Y003779D01*
X025140Y003703D01*
X025063Y003703D01*
X024987Y003779D01*
X023392Y003779D02*
X023315Y003703D01*
X023162Y003703D01*
X023085Y003779D01*
X023238Y003933D02*
X023315Y003933D01*
X023392Y003856D01*
X023392Y003779D01*
X023315Y003933D02*
X023392Y004010D01*
X023392Y004086D01*
X023315Y004163D01*
X023162Y004163D01*
X023085Y004086D01*
X022931Y004163D02*
X022778Y004163D01*
X022855Y004163D02*
X022855Y003779D01*
X022778Y003703D01*
X022701Y003703D01*
X022624Y003779D01*
X020636Y004086D02*
X020329Y003779D01*
X020329Y003703D01*
X020175Y003703D02*
X019869Y003703D01*
X020022Y003703D02*
X020022Y004163D01*
X019869Y004010D01*
X019715Y004163D02*
X019562Y004163D01*
X019638Y004163D02*
X019638Y003779D01*
X019562Y003703D01*
X019485Y003703D01*
X019408Y003779D01*
X020329Y004163D02*
X020636Y004163D01*
X020636Y004086D01*
X017486Y004086D02*
X017179Y003779D01*
X017256Y003703D01*
X017409Y003703D01*
X017486Y003779D01*
X017486Y004086D01*
X017409Y004163D01*
X017256Y004163D01*
X017179Y004086D01*
X017179Y003779D01*
X017026Y003703D02*
X016719Y003703D01*
X017026Y004010D01*
X017026Y004086D01*
X016949Y004163D01*
X016796Y004163D01*
X016719Y004086D01*
X016565Y004163D02*
X016412Y004163D01*
X016489Y004163D02*
X016489Y003779D01*
X016412Y003703D01*
X016335Y003703D01*
X016259Y003779D01*
X013943Y003779D02*
X013866Y003703D01*
X013713Y003703D01*
X013636Y003779D01*
X013636Y003856D01*
X013713Y003933D01*
X013866Y003933D01*
X013943Y003856D01*
X013943Y003779D01*
X013866Y003933D02*
X013943Y004010D01*
X013943Y004086D01*
X013866Y004163D01*
X013713Y004163D01*
X013636Y004086D01*
X013636Y004010D01*
X013713Y003933D01*
X013483Y003703D02*
X013176Y003703D01*
X013329Y003703D02*
X013329Y004163D01*
X013176Y004010D01*
X013022Y004163D02*
X012869Y004163D01*
X012945Y004163D02*
X012945Y003779D01*
X012869Y003703D01*
X012792Y003703D01*
X012715Y003779D01*
X009612Y003779D02*
X009535Y003703D01*
X009382Y003703D01*
X009305Y003779D01*
X009382Y003933D02*
X009305Y004010D01*
X009305Y004086D01*
X009382Y004163D01*
X009535Y004163D01*
X009612Y004086D01*
X009612Y003779D01*
X009612Y003933D02*
X009382Y003933D01*
X009152Y004163D02*
X008998Y004163D01*
X009075Y004163D02*
X009075Y003779D01*
X008998Y003703D01*
X008922Y003703D01*
X008845Y003779D01*
X006463Y003933D02*
X006156Y003933D01*
X006386Y004163D01*
X006386Y003703D01*
X005925Y003779D02*
X005925Y004163D01*
X005849Y004163D02*
X006002Y004163D01*
X005925Y003779D02*
X005849Y003703D01*
X005772Y003703D01*
X005695Y003779D01*
X015318Y012477D02*
X015589Y012206D01*
X015698Y012206D01*
X015806Y012314D01*
X015806Y012423D01*
X015535Y012694D01*
X015752Y012694D02*
X015752Y012911D01*
X016078Y012585D01*
X015969Y012477D02*
X016186Y012694D01*
X013289Y019659D02*
X012982Y019659D01*
X013289Y019966D01*
X013289Y020043D01*
X013212Y020120D01*
X013059Y020120D01*
X012982Y020043D01*
X012829Y020120D02*
X012675Y020120D01*
X012752Y020120D02*
X012752Y019736D01*
X012675Y019659D01*
X012598Y019659D01*
X012522Y019736D01*
X010927Y020043D02*
X010620Y019736D01*
X010620Y019659D01*
X010390Y019736D02*
X010390Y020120D01*
X010466Y020120D02*
X010313Y020120D01*
X010620Y020120D02*
X010927Y020120D01*
X010927Y020043D01*
X010390Y019736D02*
X010313Y019659D01*
X010236Y019659D01*
X010159Y019736D01*
X008237Y019659D02*
X007931Y019659D01*
X008084Y019659D02*
X008084Y020120D01*
X007931Y019966D01*
X007777Y019659D02*
X007470Y019659D01*
X007624Y019659D02*
X007624Y020120D01*
X007470Y019966D01*
X007317Y020120D02*
X007163Y020120D01*
X007240Y020120D02*
X007240Y019736D01*
X007163Y019659D01*
X007086Y019659D01*
X007010Y019736D01*
X005088Y019736D02*
X005011Y019659D01*
X004858Y019659D01*
X004781Y019736D01*
X004781Y019890D02*
X004934Y019966D01*
X005011Y019966D01*
X005088Y019890D01*
X005088Y019736D01*
X004781Y019890D02*
X004781Y020120D01*
X005088Y020120D01*
X004474Y020120D02*
X004474Y019659D01*
X004321Y019659D02*
X004627Y019659D01*
X004321Y019966D02*
X004474Y020120D01*
X004167Y020120D02*
X004014Y020120D01*
X004090Y020120D02*
X004090Y019736D01*
X004014Y019659D01*
X003937Y019659D01*
X003860Y019736D01*
D20*
X001370Y016832D02*
X001395Y016807D01*
X001395Y016757D01*
X001370Y016732D01*
X001370Y016685D02*
X001270Y016685D01*
X001245Y016660D01*
X001245Y016585D01*
X001395Y016585D01*
X001395Y016660D01*
X001370Y016685D01*
X001320Y016782D02*
X001320Y016807D01*
X001345Y016832D01*
X001370Y016832D01*
X001320Y016807D02*
X001295Y016832D01*
X001270Y016832D01*
X001245Y016807D01*
X001245Y016757D01*
X001270Y016732D01*
X001245Y016538D02*
X001245Y016438D01*
X001395Y016438D01*
X001395Y016538D01*
X001320Y016488D02*
X001320Y016438D01*
X001395Y016391D02*
X001395Y016290D01*
X001245Y016290D01*
X001395Y015651D02*
X001395Y015551D01*
X001395Y015601D02*
X001245Y015601D01*
X001295Y015551D01*
X001270Y015504D02*
X001245Y015479D01*
X001245Y015404D01*
X001395Y015404D01*
X001395Y015479D01*
X001370Y015504D01*
X001270Y015504D01*
X001245Y015357D02*
X001245Y015257D01*
X001395Y015257D01*
X001395Y015357D01*
X001320Y015307D02*
X001320Y015257D01*
X001395Y015209D02*
X001395Y015109D01*
X001245Y015109D01*
X001245Y014470D02*
X001270Y014470D01*
X001370Y014370D01*
X001395Y014370D01*
X001370Y014323D02*
X001270Y014323D01*
X001245Y014298D01*
X001245Y014223D01*
X001395Y014223D01*
X001395Y014298D01*
X001370Y014323D01*
X001245Y014370D02*
X001245Y014470D01*
X001245Y014176D02*
X001245Y014076D01*
X001395Y014076D01*
X001395Y014176D01*
X001320Y014126D02*
X001320Y014076D01*
X001395Y014028D02*
X001395Y013928D01*
X001245Y013928D01*
X001245Y013289D02*
X001270Y013239D01*
X001320Y013189D01*
X001320Y013264D01*
X001345Y013289D01*
X001370Y013289D01*
X001395Y013264D01*
X001395Y013214D01*
X001370Y013189D01*
X001320Y013189D01*
X001370Y013142D02*
X001270Y013142D01*
X001245Y013117D01*
X001245Y013042D01*
X001395Y013042D01*
X001395Y013117D01*
X001370Y013142D01*
X001395Y012995D02*
X001395Y012894D01*
X001245Y012894D01*
X001245Y012995D01*
X001320Y012944D02*
X001320Y012894D01*
X001395Y012847D02*
X001395Y012747D01*
X001245Y012747D01*
X001270Y012108D02*
X001245Y012083D01*
X001245Y012033D01*
X001270Y012008D01*
X001270Y011961D02*
X001245Y011936D01*
X001245Y011861D01*
X001395Y011861D01*
X001395Y011936D01*
X001370Y011961D01*
X001270Y011961D01*
X001395Y012008D02*
X001295Y012108D01*
X001270Y012108D01*
X001395Y012108D02*
X001395Y012008D01*
X001395Y011813D02*
X001395Y011713D01*
X001245Y011713D01*
X001245Y011813D01*
X001320Y011763D02*
X001320Y011713D01*
X001395Y011666D02*
X001395Y011566D01*
X001245Y011566D01*
X001955Y011013D02*
X002030Y010938D01*
X002030Y011038D01*
X002105Y011013D02*
X001955Y011013D01*
X001980Y010890D02*
X001955Y010865D01*
X001955Y010790D01*
X002105Y010790D01*
X002105Y010865D01*
X002080Y010890D01*
X001980Y010890D01*
X001955Y010743D02*
X001955Y010643D01*
X002105Y010643D01*
X002105Y010743D01*
X002030Y010693D02*
X002030Y010643D01*
X002105Y010596D02*
X002105Y010496D01*
X001955Y010496D01*
X001980Y009857D02*
X001955Y009832D01*
X001955Y009782D01*
X001980Y009756D01*
X002005Y009756D01*
X002030Y009782D01*
X002030Y009857D01*
X002080Y009857D02*
X001980Y009857D01*
X002080Y009857D02*
X002105Y009832D01*
X002105Y009782D01*
X002080Y009756D01*
X002080Y009709D02*
X001980Y009709D01*
X001955Y009684D01*
X001955Y009609D01*
X002105Y009609D01*
X002105Y009684D01*
X002080Y009709D01*
X002105Y009562D02*
X002105Y009462D01*
X001955Y009462D01*
X001955Y009562D01*
X002030Y009512D02*
X002030Y009462D01*
X002105Y009415D02*
X002105Y009315D01*
X001955Y009315D01*
X001980Y008675D02*
X002080Y008575D01*
X002105Y008600D01*
X002105Y008650D01*
X002080Y008675D01*
X001980Y008675D01*
X001955Y008650D01*
X001955Y008600D01*
X001980Y008575D01*
X002080Y008575D01*
X002105Y008528D02*
X002105Y008428D01*
X002105Y008478D02*
X001955Y008478D01*
X002005Y008428D01*
X001980Y008381D02*
X001955Y008356D01*
X001955Y008281D01*
X002105Y008281D01*
X002105Y008356D01*
X002080Y008381D01*
X001980Y008381D01*
X001955Y008233D02*
X001955Y008133D01*
X002105Y008133D01*
X002105Y008233D01*
X002030Y008183D02*
X002030Y008133D01*
X002105Y008086D02*
X002105Y007986D01*
X001955Y007986D01*
X002105Y007494D02*
X002105Y007394D01*
X002105Y007347D02*
X002105Y007247D01*
X002105Y007297D02*
X001955Y007297D01*
X002005Y007247D01*
X001980Y007200D02*
X001955Y007175D01*
X001955Y007100D01*
X002105Y007100D01*
X002105Y007175D01*
X002080Y007200D01*
X001980Y007200D01*
X001955Y007052D02*
X001955Y006952D01*
X002105Y006952D01*
X002105Y007052D01*
X002030Y007002D02*
X002030Y006952D01*
X002105Y006905D02*
X002105Y006805D01*
X001955Y006805D01*
X002005Y007394D02*
X001955Y007444D01*
X002105Y007444D01*
X002769Y007913D02*
X002769Y008063D01*
X002844Y008063D01*
X002869Y008038D01*
X002869Y007988D01*
X002844Y007963D01*
X002769Y007963D01*
X002819Y007963D02*
X002869Y007913D01*
X002916Y007913D02*
X003016Y008013D01*
X003016Y008038D01*
X002991Y008063D01*
X002941Y008063D01*
X002916Y008038D01*
X002916Y007913D02*
X003016Y007913D01*
X003064Y007988D02*
X003164Y007988D01*
X003139Y008063D02*
X003064Y007988D01*
X003139Y007913D02*
X003139Y008063D01*
X003139Y008700D02*
X003089Y008700D01*
X003064Y008725D01*
X003016Y008700D02*
X002916Y008700D01*
X003016Y008800D01*
X003016Y008825D01*
X002991Y008850D01*
X002941Y008850D01*
X002916Y008825D01*
X002869Y008825D02*
X002869Y008775D01*
X002844Y008750D01*
X002769Y008750D01*
X002769Y008700D02*
X002769Y008850D01*
X002844Y008850D01*
X002869Y008825D01*
X002819Y008750D02*
X002869Y008700D01*
X003064Y008825D02*
X003089Y008850D01*
X003139Y008850D01*
X003164Y008825D01*
X003164Y008800D01*
X003139Y008775D01*
X003164Y008750D01*
X003164Y008725D01*
X003139Y008700D01*
X003139Y008775D02*
X003114Y008775D01*
X003064Y009488D02*
X003064Y009513D01*
X003164Y009613D01*
X003164Y009638D01*
X003064Y009638D01*
X002966Y009638D02*
X002966Y009488D01*
X002916Y009488D02*
X003016Y009488D01*
X002916Y009588D02*
X002966Y009638D01*
X002869Y009613D02*
X002869Y009563D01*
X002844Y009538D01*
X002769Y009538D01*
X002819Y009538D02*
X002869Y009488D01*
X002769Y009488D02*
X002769Y009638D01*
X002844Y009638D01*
X002869Y009613D01*
X002869Y010275D02*
X002819Y010325D01*
X002844Y010325D02*
X002769Y010325D01*
X002769Y010275D02*
X002769Y010425D01*
X002844Y010425D01*
X002869Y010400D01*
X002869Y010350D01*
X002844Y010325D01*
X002916Y010375D02*
X002966Y010425D01*
X002966Y010275D01*
X002916Y010275D02*
X003016Y010275D01*
X003064Y010300D02*
X003164Y010400D01*
X003164Y010300D01*
X003139Y010275D01*
X003089Y010275D01*
X003064Y010300D01*
X003064Y010400D01*
X003089Y010425D01*
X003139Y010425D01*
X003164Y010400D01*
X003164Y011062D02*
X003064Y011062D01*
X003164Y011162D01*
X003164Y011187D01*
X003139Y011212D01*
X003089Y011212D01*
X003064Y011187D01*
X003016Y011187D02*
X003016Y011137D01*
X002991Y011112D01*
X002916Y011112D01*
X002916Y011062D02*
X002916Y011212D01*
X002991Y011212D01*
X003016Y011187D01*
X002966Y011112D02*
X003016Y011062D01*
X003016Y011850D02*
X002916Y011850D01*
X002869Y011850D02*
X002819Y011900D01*
X002844Y011900D02*
X002769Y011900D01*
X002769Y011850D02*
X002769Y012000D01*
X002844Y012000D01*
X002869Y011975D01*
X002869Y011925D01*
X002844Y011900D01*
X002916Y011950D02*
X002966Y012000D01*
X002966Y011850D01*
X003064Y011850D02*
X003164Y011950D01*
X003164Y011975D01*
X003139Y012000D01*
X003089Y012000D01*
X003064Y011975D01*
X003064Y011850D02*
X003164Y011850D01*
X003139Y012637D02*
X003089Y012637D01*
X003064Y012662D01*
X003064Y012712D02*
X003114Y012737D01*
X003139Y012737D01*
X003164Y012712D01*
X003164Y012662D01*
X003139Y012637D01*
X003064Y012712D02*
X003064Y012787D01*
X003164Y012787D01*
X002966Y012787D02*
X002966Y012637D01*
X002916Y012637D02*
X003016Y012637D01*
X002916Y012737D02*
X002966Y012787D01*
X002869Y012762D02*
X002869Y012712D01*
X002844Y012687D01*
X002769Y012687D01*
X002769Y012637D02*
X002769Y012787D01*
X002844Y012787D01*
X002869Y012762D01*
X002819Y012687D02*
X002869Y012637D01*
X002916Y013425D02*
X002916Y013575D01*
X002991Y013575D01*
X003016Y013550D01*
X003016Y013500D01*
X002991Y013475D01*
X002916Y013475D01*
X002966Y013475D02*
X003016Y013425D01*
X003064Y013425D02*
X003164Y013425D01*
X003114Y013425D02*
X003114Y013575D01*
X003064Y013525D01*
X003089Y014212D02*
X003139Y014212D01*
X003164Y014237D01*
X003164Y014337D01*
X003139Y014362D01*
X003089Y014362D01*
X003064Y014337D01*
X003064Y014312D01*
X003089Y014287D01*
X003164Y014287D01*
X003089Y014212D02*
X003064Y014237D01*
X003016Y014212D02*
X002966Y014262D01*
X002991Y014262D02*
X002916Y014262D01*
X002916Y014212D02*
X002916Y014362D01*
X002991Y014362D01*
X003016Y014337D01*
X003016Y014287D01*
X002991Y014262D01*
X011566Y015391D02*
X011591Y015366D01*
X011641Y015366D01*
X011666Y015391D01*
X011713Y015366D02*
X011813Y015366D01*
X011763Y015366D02*
X011763Y015516D01*
X011713Y015466D01*
X011666Y015491D02*
X011641Y015516D01*
X011591Y015516D01*
X011566Y015491D01*
X011566Y015391D01*
X011861Y015441D02*
X011961Y015441D01*
X011936Y015516D02*
X011861Y015441D01*
X011936Y015366D02*
X011936Y015516D01*
X011961Y012760D02*
X011911Y012735D01*
X011861Y012685D01*
X011936Y012685D01*
X011961Y012660D01*
X011961Y012635D01*
X011936Y012610D01*
X011886Y012610D01*
X011861Y012635D01*
X011861Y012685D01*
X011813Y012610D02*
X011713Y012610D01*
X011763Y012610D02*
X011763Y012760D01*
X011713Y012710D01*
X011666Y012735D02*
X011641Y012760D01*
X011591Y012760D01*
X011566Y012735D01*
X011566Y012635D01*
X011591Y012610D01*
X011641Y012610D01*
X011666Y012635D01*
X011641Y011972D02*
X011591Y011972D01*
X011566Y011947D01*
X011566Y011847D01*
X011591Y011822D01*
X011641Y011822D01*
X011666Y011847D01*
X011713Y011822D02*
X011813Y011822D01*
X011763Y011822D02*
X011763Y011972D01*
X011713Y011922D01*
X011666Y011947D02*
X011641Y011972D01*
X011861Y011972D02*
X011861Y011897D01*
X011911Y011922D01*
X011936Y011922D01*
X011961Y011897D01*
X011961Y011847D01*
X011936Y011822D01*
X011886Y011822D01*
X011861Y011847D01*
X011861Y011972D02*
X011961Y011972D01*
X012772Y010791D02*
X012747Y010766D01*
X012747Y010666D01*
X012772Y010641D01*
X012822Y010641D01*
X012847Y010666D01*
X012894Y010641D02*
X012995Y010641D01*
X013042Y010641D02*
X013042Y010666D01*
X013142Y010766D01*
X013142Y010791D01*
X013042Y010791D01*
X012944Y010791D02*
X012944Y010641D01*
X012894Y010741D02*
X012944Y010791D01*
X012847Y010766D02*
X012822Y010791D01*
X012772Y010791D01*
X010512Y008958D02*
X010512Y008858D01*
X010362Y008858D01*
X010362Y008958D01*
X010437Y008908D02*
X010437Y008858D01*
X010362Y008811D02*
X010362Y008711D01*
X010512Y008711D01*
X010512Y008811D01*
X010437Y008761D02*
X010437Y008711D01*
X010412Y008663D02*
X010437Y008638D01*
X010437Y008563D01*
X010362Y008563D02*
X010362Y008638D01*
X010387Y008663D01*
X010412Y008663D01*
X010437Y008638D02*
X010462Y008663D01*
X010487Y008663D01*
X010512Y008638D01*
X010512Y008563D01*
X010362Y008563D01*
X010362Y008516D02*
X010512Y008416D01*
X010512Y008516D02*
X010362Y008416D01*
X014482Y008652D02*
X014517Y008617D01*
X014552Y008617D01*
X014568Y008566D02*
X014639Y008495D01*
X014603Y008530D02*
X014710Y008636D01*
X014639Y008636D01*
X014623Y008688D02*
X014623Y008723D01*
X014588Y008758D01*
X014552Y008758D01*
X014482Y008688D01*
X014482Y008652D01*
X015717Y008527D02*
X015717Y008492D01*
X015752Y008457D01*
X015787Y008457D01*
X015803Y008405D02*
X015945Y008405D01*
X015962Y008423D01*
X015962Y008459D01*
X015927Y008494D01*
X015892Y008494D01*
X015858Y008527D02*
X015858Y008563D01*
X015823Y008598D01*
X015787Y008598D01*
X015717Y008527D01*
X015803Y008405D02*
X015874Y008335D01*
X024842Y009598D02*
X024842Y009673D01*
X024867Y009698D01*
X024917Y009698D01*
X024942Y009673D01*
X024942Y009598D01*
X024942Y009648D02*
X024992Y009698D01*
X024992Y009745D02*
X024992Y009845D01*
X024992Y009892D02*
X024992Y009992D01*
X024992Y009942D02*
X024842Y009942D01*
X024892Y009892D01*
X024842Y009795D02*
X024992Y009795D01*
X024892Y009745D02*
X024842Y009795D01*
X024842Y009598D02*
X024992Y009598D01*
X025629Y009598D02*
X025629Y009673D01*
X025654Y009698D01*
X025704Y009698D01*
X025729Y009673D01*
X025729Y009598D01*
X025729Y009648D02*
X025779Y009698D01*
X025754Y009745D02*
X025729Y009745D01*
X025704Y009770D01*
X025704Y009820D01*
X025729Y009845D01*
X025754Y009845D01*
X025779Y009820D01*
X025779Y009770D01*
X025754Y009745D01*
X025704Y009770D02*
X025679Y009745D01*
X025654Y009745D01*
X025629Y009770D01*
X025629Y009820D01*
X025654Y009845D01*
X025679Y009845D01*
X025704Y009820D01*
X025779Y009598D02*
X025629Y009598D01*
X026417Y009598D02*
X026417Y009673D01*
X026442Y009698D01*
X026492Y009698D01*
X026517Y009673D01*
X026517Y009598D01*
X026517Y009648D02*
X026567Y009698D01*
X026567Y009745D02*
X026567Y009845D01*
X026567Y009795D02*
X026417Y009795D01*
X026467Y009745D01*
X026442Y009892D02*
X026417Y009917D01*
X026417Y009967D01*
X026442Y009992D01*
X026467Y009992D01*
X026492Y009967D01*
X026517Y009992D01*
X026542Y009992D01*
X026567Y009967D01*
X026567Y009917D01*
X026542Y009892D01*
X026492Y009942D02*
X026492Y009967D01*
X026567Y009598D02*
X026417Y009598D01*
X023475Y013791D02*
X023475Y013816D01*
X023575Y013916D01*
X023575Y013941D01*
X023475Y013941D01*
X023428Y013916D02*
X023428Y013891D01*
X023403Y013866D01*
X023428Y013841D01*
X023428Y013816D01*
X023403Y013791D01*
X023353Y013791D01*
X023328Y013816D01*
X023280Y013791D02*
X023230Y013841D01*
X023255Y013841D02*
X023180Y013841D01*
X023180Y013791D02*
X023180Y013941D01*
X023255Y013941D01*
X023280Y013916D01*
X023280Y013866D01*
X023255Y013841D01*
X023328Y013916D02*
X023353Y013941D01*
X023403Y013941D01*
X023428Y013916D01*
X023403Y013866D02*
X023378Y013866D01*
X023403Y014381D02*
X023353Y014381D01*
X023328Y014406D01*
X023280Y014381D02*
X023230Y014431D01*
X023255Y014431D02*
X023180Y014431D01*
X023180Y014381D02*
X023180Y014532D01*
X023255Y014532D01*
X023280Y014506D01*
X023280Y014456D01*
X023255Y014431D01*
X023328Y014506D02*
X023353Y014532D01*
X023403Y014532D01*
X023428Y014506D01*
X023428Y014481D01*
X023403Y014456D01*
X023428Y014431D01*
X023428Y014406D01*
X023403Y014381D01*
X023403Y014456D02*
X023378Y014456D01*
X023475Y014456D02*
X023525Y014481D01*
X023550Y014481D01*
X023575Y014456D01*
X023575Y014406D01*
X023550Y014381D01*
X023500Y014381D01*
X023475Y014406D01*
X023475Y014456D02*
X023475Y014532D01*
X023575Y014532D01*
X032826Y017365D02*
X032851Y017340D01*
X032901Y017340D01*
X032926Y017365D01*
X032926Y017390D01*
X032901Y017415D01*
X032851Y017415D01*
X032826Y017441D01*
X032826Y017466D01*
X032851Y017491D01*
X032901Y017491D01*
X032926Y017466D01*
X032973Y017441D02*
X033023Y017491D01*
X033023Y017340D01*
X032973Y017340D02*
X033073Y017340D01*
X035078Y013363D02*
X035153Y013288D01*
X035153Y013388D01*
X035228Y013363D02*
X035078Y013363D01*
X035103Y013241D02*
X035078Y013216D01*
X035078Y013166D01*
X035103Y013141D01*
X035203Y013141D01*
X035228Y013166D01*
X035228Y013216D01*
X035203Y013241D01*
X036838Y008848D02*
X036813Y008823D01*
X036813Y008723D01*
X036838Y008698D01*
X036888Y008698D01*
X036913Y008723D01*
X036960Y008723D02*
X036985Y008698D01*
X037035Y008698D01*
X037060Y008723D01*
X037060Y008748D01*
X037035Y008773D01*
X037010Y008773D01*
X037035Y008773D02*
X037060Y008798D01*
X037060Y008823D01*
X037035Y008848D01*
X036985Y008848D01*
X036960Y008823D01*
X036913Y008823D02*
X036888Y008848D01*
X036838Y008848D01*
X004885Y005651D02*
X004885Y005626D01*
X004860Y005601D01*
X004885Y005576D01*
X004885Y005551D01*
X004860Y005526D01*
X004810Y005526D01*
X004785Y005551D01*
X004738Y005526D02*
X004638Y005526D01*
X004688Y005526D02*
X004688Y005676D01*
X004638Y005626D01*
X004591Y005651D02*
X004566Y005676D01*
X004516Y005676D01*
X004491Y005651D01*
X004491Y005551D01*
X004516Y005526D01*
X004566Y005526D01*
X004591Y005551D01*
X004785Y005651D02*
X004810Y005676D01*
X004860Y005676D01*
X004885Y005651D01*
X004860Y005601D02*
X004835Y005601D01*
D21*
X003407Y007088D02*
X003151Y007088D01*
X003151Y008072D01*
X003407Y008072D01*
X003151Y007088D02*
X000651Y009943D01*
X000651Y013880D01*
X003151Y016734D01*
X003151Y015750D01*
X003407Y015750D01*
X003407Y016734D02*
X003151Y016734D01*
X001856Y016702D02*
X001675Y016702D01*
X001767Y016580D01*
X001675Y016702D02*
X001494Y016702D01*
X001589Y016580D02*
X001665Y016696D01*
X001675Y015521D02*
X001494Y015521D01*
X001589Y015399D02*
X001665Y015515D01*
X001675Y015521D02*
X001767Y015399D01*
X001856Y015521D02*
X001675Y015521D01*
X001675Y014340D02*
X001494Y014340D01*
X001589Y014218D02*
X001665Y014334D01*
X001675Y014340D02*
X001767Y014218D01*
X001856Y014340D02*
X001675Y014340D01*
X001675Y013159D02*
X001494Y013159D01*
X001589Y013037D02*
X001665Y013153D01*
X001675Y013159D02*
X001767Y013037D01*
X001856Y013159D02*
X001675Y013159D01*
X001675Y011978D02*
X001494Y011978D01*
X001589Y011856D02*
X001665Y011972D01*
X001675Y011978D02*
X001767Y011856D01*
X001856Y011978D02*
X001675Y011978D01*
X001761Y010785D02*
X001685Y010669D01*
X001675Y010663D02*
X001583Y010785D01*
X001494Y010663D02*
X001675Y010663D01*
X001856Y010663D01*
X001761Y009604D02*
X001685Y009488D01*
X001675Y009482D02*
X001583Y009604D01*
X001494Y009482D02*
X001675Y009482D01*
X001856Y009482D01*
X001761Y008423D02*
X001685Y008307D01*
X001675Y008301D02*
X001583Y008423D01*
X001494Y008301D02*
X001675Y008301D01*
X001856Y008301D01*
X001761Y007242D02*
X001685Y007126D01*
X001675Y007120D02*
X001583Y007242D01*
X001494Y007120D02*
X001675Y007120D01*
X001856Y007120D01*
X011006Y007088D02*
X011222Y007088D01*
X011222Y008072D01*
X011006Y008072D01*
X011222Y007088D02*
X011517Y007088D01*
X011517Y016734D01*
X011222Y016734D01*
X011006Y016734D01*
X011222Y016734D02*
X011222Y015750D01*
X011006Y015750D01*
X013427Y012502D02*
X013289Y012364D01*
X014332Y012502D02*
X014470Y012502D01*
X014470Y012364D01*
X014470Y011458D02*
X014470Y011320D01*
X014332Y011320D01*
X013427Y011320D02*
X013289Y011320D01*
X013289Y011458D01*
X032171Y016147D02*
X032171Y017135D01*
X032565Y017635D02*
X033777Y017635D01*
X034171Y017124D02*
X034171Y016147D01*
X033777Y015635D02*
X032565Y015635D01*
X032671Y016635D02*
X032673Y016679D01*
X032679Y016723D01*
X032689Y016766D01*
X032702Y016808D01*
X032719Y016849D01*
X032740Y016888D01*
X032764Y016925D01*
X032791Y016960D01*
X032821Y016992D01*
X032854Y017022D01*
X032890Y017048D01*
X032927Y017072D01*
X032967Y017091D01*
X033008Y017108D01*
X033051Y017120D01*
X033094Y017129D01*
X033138Y017134D01*
X033182Y017135D01*
X033226Y017132D01*
X033270Y017125D01*
X033313Y017114D01*
X033355Y017100D01*
X033395Y017082D01*
X033434Y017060D01*
X033470Y017036D01*
X033504Y017008D01*
X033536Y016977D01*
X033565Y016943D01*
X033591Y016907D01*
X033613Y016869D01*
X033632Y016829D01*
X033647Y016787D01*
X033659Y016745D01*
X033667Y016701D01*
X033671Y016657D01*
X033671Y016613D01*
X033667Y016569D01*
X033659Y016525D01*
X033647Y016483D01*
X033632Y016441D01*
X033613Y016401D01*
X033591Y016363D01*
X033565Y016327D01*
X033536Y016293D01*
X033504Y016262D01*
X033470Y016234D01*
X033434Y016210D01*
X033395Y016188D01*
X033355Y016170D01*
X033313Y016156D01*
X033270Y016145D01*
X033226Y016138D01*
X033182Y016135D01*
X033138Y016136D01*
X033094Y016141D01*
X033051Y016150D01*
X033008Y016162D01*
X032967Y016179D01*
X032927Y016198D01*
X032890Y016222D01*
X032854Y016248D01*
X032821Y016278D01*
X032791Y016310D01*
X032764Y016345D01*
X032740Y016382D01*
X032719Y016421D01*
X032702Y016462D01*
X032689Y016504D01*
X032679Y016547D01*
X032673Y016591D01*
X032671Y016635D01*
D22*
X036990Y008604D02*
X037226Y008604D01*
X037226Y008131D02*
X036990Y008131D01*
X004746Y006242D02*
X004509Y006242D01*
X004509Y005769D02*
X004746Y005769D01*
D23*
X038348Y010376D02*
X038545Y010179D01*
X038348Y013446D02*
X038545Y013643D01*
M02*
